<?xml version="1.0" standalone="no"?>
<!DOCTYPE svg PUBLIC "-//W3C//DTD SVG 1.1//EN" "http://www.w3.org/Graphics/SVG/1.1/DTD/svg11.dtd" >
<svg>
<metadata>
Created by FontForge 20090622 at Wed Oct  3 12:30:04 2018
 By deploy user
&#194;&#169; 2017 Connary Fagen
</metadata>
<defs>
<font id="integral-cf-bold" horiz-adv-x="1733" >
  <font-face 
    font-family="integral-cf-bold"
    font-weight="700"
    font-stretch="normal"
    units-per-em="2048"
    panose-1="0 0 8 0 0 0 0 0 0 0"
    ascent="1638"
    descent="-410"
    x-height="1434"
    cap-height="1434"
    bbox="-493 -802 2756 1893"
    underline-thickness="0"
    underline-position="0"
    unicode-range="U+0020-U+25CA"
  />
<missing-glyph horiz-adv-x="896" 
d="M736 1536v-1792h-569v1792h569zM597 1417h-297v-60h118v-67h-119v-58h298v58h-119v67h119v60zM478 1184h-179v-186h298v62h-119v124zM418 1125v-65h-60v65h60zM597 951h-298v-60h119v-67h-119v-58h179v125h119v60zM597 843h-59v-119h-239v-60h298v179zM597 625h-179v-101
h60v41h60v-84h-180v144h-59v-203h298v203zM597 314h-298v-203h298v203zM538 254v-83h-180v83h180zM597 70h-298v-60h126l-126 -83v-60h298v60h-182l124 83h58v60z" />
    <glyph glyph-name=".notdef" horiz-adv-x="896" 
d="M736 1536v-1792h-569v1792h569zM597 1417h-297v-60h118v-67h-119v-58h298v58h-119v67h119v60zM478 1184h-179v-186h298v62h-119v124zM418 1125v-65h-60v65h60zM597 951h-298v-60h119v-67h-119v-58h179v125h119v60zM597 843h-59v-119h-239v-60h298v179zM597 625h-179v-101
h60v41h60v-84h-180v144h-59v-203h298v203zM597 314h-298v-203h298v203zM538 254v-83h-180v83h180zM597 70h-298v-60h126l-126 -83v-60h298v60h-182l124 83h58v60z" />
    <glyph glyph-name=".null" horiz-adv-x="0" 
 />
    <glyph glyph-name="nonmarkingreturn" horiz-adv-x="682" 
 />
    <glyph glyph-name="space" unicode=" " horiz-adv-x="443" 
 />
    <glyph glyph-name="exclam" unicode="!" horiz-adv-x="590" 
d="M143 543l-92 891h488l-92 -891h-304zM295.5 -27q-95.5 0 -165.5 69t-70 163t70 163t165.5 69t165.5 -69t70 -163t-70 -163t-165.5 -69z" />
    <glyph glyph-name="quotedbl" unicode="&#x22;" horiz-adv-x="1066" 
d="M118 795l-33 639h410l-32 -639h-345zM604 795l-32 639h409l-32 -639h-345z" />
    <glyph glyph-name="numbersign" unicode="#" horiz-adv-x="1447" 
d="M1396 829h-183v-201h183v-343h-183v-285h-390v285h-198v-285h-391v285h-183v343h183v201h-183v320h183v285h391v-285h198v285h390v-285h183v-320zM823 628v201h-198v-201h198z" />
    <glyph glyph-name="dollar" unicode="$" horiz-adv-x="1343" 
d="M1312 466q0 -183 -150 -282t-421 -112v-103h-147v103q-563 26 -568 443h416q5 -109 152 -124v198q-232 38 -331 80q-218 92 -219 300q0 174 148 277.5t402 113.5v113h147v-114q113 -7 201.5 -32t165 -74.5t117.5 -135.5t40 -204h-407q-2 61 -31.5 92t-85.5 39v-199
q55 -5 80.5 -8.5t80.5 -12t87 -17t81.5 -25t78.5 -35t64 -46t53.5 -60.5t32 -77.5t13.5 -97.5zM474 963q0 -63 120 -94v179q-120 -15 -120 -85zM741 391q135 10 135 82q0 29 -30 49.5t-105 37.5v-169z" />
    <glyph glyph-name="percent" unicode="%" horiz-adv-x="1989" 
d="M631 -49l-198 133l926 1408l197 -133zM465.5 691q-194.5 0 -291.5 107.5t-97 274.5q0 166 97 273.5t291.5 107.5t292 -107.5t97.5 -273.5q0 -167 -97.5 -274.5t-292 -107.5zM466 981q46 0 69 27.5t23 65t-23 64t-69 26.5t-69 -26.5t-23 -64t23 -65t69 -27.5zM1522.5 -20
q-194.5 0 -292 107.5t-97.5 274.5q0 166 97.5 273t292 107t291.5 -107.5t97 -272.5q0 -167 -97 -274.5t-291.5 -107.5zM1522 270q46 0 69.5 27t23.5 64.5t-23.5 64t-69.5 26.5t-69 -26.5t-23 -64t23 -64.5t69 -27z" />
    <glyph glyph-name="ampersand" unicode="&#x26;" horiz-adv-x="1751" 
d="M1708 232l-192 -271l-175 124q-224 -133 -556 -133q-341 0 -541.5 128t-200.5 348q0 130 73 233.5t229 162.5q-109 118 -109 251q0 162 161 279t450 117q299 0 470 -133t170 -415h-412q2 113 -60.5 156.5t-167.5 43.5q-177 0 -178 -97q0 -36 39.5 -72t185.5 -142
l348 -247q43 92 40 196h414q-5 -256 -116 -438zM833 317q82 0 157 23l-403 290q-72 -48 -72 -127q0 -94 90.5 -140t227.5 -46z" />
    <glyph glyph-name="quotesingle" unicode="'" horiz-adv-x="580" 
d="M118 795l-33 639h410l-32 -639h-345z" />
    <glyph glyph-name="parenleft" unicode="(" horiz-adv-x="955" 
d="M896 -247q-133 0 -246.5 23t-195.5 59.5t-147.5 93.5t-109 115t-75.5 135t-48 140t-25.5 143.5t-12 134t-2.5 120t2.5 120.5t12 133.5t25.5 142.5t48 139t75.5 134t109 115t147.5 94t195.5 60t246.5 23v-388q-109 0 -187.5 -29t-124 -76.5t-72 -125.5t-34 -155.5
t-7.5 -186.5t7.5 -187.5t34 -157t72 -125.5t124 -77t187.5 -30v-387z" />
    <glyph glyph-name="parenright" unicode=")" horiz-adv-x="955" 
d="M60 -247v387q109 0 187.5 30t123.5 77t71.5 125.5t34.5 157t8 187.5t-8 186.5t-34.5 155.5t-71.5 125.5t-123.5 76.5t-187.5 29v388q133 0 246.5 -23t195.5 -60t147.5 -94t109 -115t75 -134t48 -139t25.5 -142.5t12 -133.5t3 -120.5t-3 -120t-12 -134t-25.5 -143.5
t-48 -140t-75 -135t-109 -115t-147.5 -93.5t-195.5 -59.5t-246.5 -23z" />
    <glyph glyph-name="asterisk" unicode="*" horiz-adv-x="1122" 
d="M1038 1079l-248 -118l248 -118l-137 -237l-223 155l20 -273h-273l20 273l-223 -155l-137 237l248 118l-248 118l137 237l223 -154l-20 272h273l-20 -272l223 154z" />
    <glyph glyph-name="plus" unicode="+" horiz-adv-x="1378" 
d="M1294 905v-374h-408v-406h-394v406h-407v374h407v407h394v-407h408z" />
    <glyph glyph-name="comma" unicode="," horiz-adv-x="658" 
d="M215 -406q26 179 22 406h-186v394h557v-87q0 -268 -32 -454t-71 -259h-290z" />
    <glyph glyph-name="hyphen" unicode="-" horiz-adv-x="1126" 
d="M68 512v394h990v-394h-990z" />
    <glyph glyph-name="period" unicode="." horiz-adv-x="590" 
d="M295.5 -27q-95.5 0 -165.5 69t-70 163t70 163t165.5 69t165.5 -69t70 -163t-70 -163t-165.5 -69z" />
    <glyph glyph-name="slash" unicode="/" horiz-adv-x="1235" 
d="M17 0l662 1434h540l-663 -1434h-539z" />
    <glyph glyph-name="zero" unicode="0" horiz-adv-x="1525" 
d="M763 -38q-350 0 -539.5 195t-189.5 560t189.5 559.5t539.5 194.5t539.5 -194.5t189.5 -559.5t-189.5 -560t-539.5 -195zM763 360q263 0 263 356.5t-263 356.5t-263 -356.5t263 -356.5z" />
    <glyph glyph-name="one" unicode="1" horiz-adv-x="1305" 
d="M934 358h303v-358h-1169v358h393v623q-116 -97 -359 -97v396q196 0 359 154h473v-1076z" />
    <glyph glyph-name="two" unicode="2" horiz-adv-x="1392" 
d="M1350 1005q0 -138 -65 -232t-164.5 -141.5t-202 -82.5t-195.5 -81t-127 -110h749v-358h-1302v213q0 125 47 223t121 158.5t164.5 107t181 77t164.5 58.5t121 64t47 80q0 114 -167 115q-38 0 -69.5 -5.5t-64.5 -20.5t-53 -48.5t-18 -81.5h-461q0 261 163 396t482 135
q311 0 480 -118.5t169 -347.5z" />
    <glyph glyph-name="three" unicode="3" horiz-adv-x="1445" 
d="M705 -38q-341 0 -502.5 123t-159.5 395h423q5 -82 62 -113.5t167 -31.5q116 0 178 30.5t62 88.5q0 19 -8.5 39.5t-30.5 45t-76 40t-132 15.5h-79v266h79q77 0 129.5 13t75 35t30 40t7.5 37q0 114 -215 114q-220 0 -220 -150h-420q-5 522 644 522q312 0 475 -108.5
t163 -295.5q0 -205 -205 -304v-24q113 -34 182 -122t69 -221q0 -205 -186 -319.5t-512 -114.5z" />
    <glyph glyph-name="four" unicode="4" horiz-adv-x="1561" 
d="M1294 601h216v-359h-216v-242h-473v242h-761v359l679 833h555v-833zM469 601h352v432z" />
    <glyph glyph-name="five" unicode="5" horiz-adv-x="1408" 
d="M689 -38q-328 0 -485.5 126.5t-152.5 380.5h420q24 -138 215 -138q119 0 178 51t59 128q0 79 -55.5 126t-166.5 47q-142 0 -220 -92h-416l162 843h1017v-357h-667l-41 -195q102 70 304 70q225 0 375 -121t150 -346q0 -246 -173.5 -384.5t-502.5 -138.5z" />
    <glyph glyph-name="six" unicode="6" horiz-adv-x="1402" 
d="M795 918q164 0 289.5 -45t205 -151t79.5 -261q0 -230 -167.5 -364.5t-486.5 -134.5q-157 0 -278 41t-196 108.5t-122 167.5t-66 207.5t-19 237.5q0 203 54.5 351.5t153.5 233t220.5 123.5t269.5 39q288 0 451.5 -120t156.5 -358h-376q-26 126 -232 127q-265 0 -254 -260
q107 58 317 58zM710 311q111 0 172.5 45t61.5 117q0 73 -60.5 115.5t-173.5 42.5q-229 0 -229 -158q0 -72 59 -117t170 -45z" />
    <glyph glyph-name="seven" unicode="7" horiz-adv-x="1329" 
d="M43 1434h1252v-381l-693 -1053h-498l696 1053h-757v381z" />
    <glyph glyph-name="eight" unicode="8" horiz-adv-x="1464" 
d="M732.5 -38q-189.5 0 -328 38t-215 103.5t-111.5 143t-35 169.5q0 246 245 372v28q-65 39 -103 111.5t-38 154.5q0 176 147.5 282.5t437.5 106.5t439.5 -107.5t149.5 -281.5q0 -82 -40 -153.5t-105 -112.5v-28q246 -126 246 -372q0 -92 -35 -169.5t-112 -143t-215 -103.5
t-327.5 -38zM732.5 905q172.5 0 172.5 121q0 125 -172.5 124.5t-172.5 -124.5q0 -121 172.5 -121zM732.5 317q230.5 0 230.5 159q0 70 -55 114.5t-176 44.5t-175.5 -44.5t-54.5 -114.5q0 -159 230.5 -159z" />
    <glyph glyph-name="nine" unicode="9" horiz-adv-x="1402" 
d="M688 1471q157 0 278 -41t196 -108.5t122 -167t66 -207t19 -237.5q0 -203 -54.5 -351.5t-153.5 -233t-220.5 -124t-269.5 -39.5q-288 0 -451.5 120.5t-156.5 357.5h376q26 -126 232 -126q265 0 254 259q-108 -58 -317 -58q-164 0 -289.5 45.5t-205 151t-79.5 261.5
q0 230 167.5 364t486.5 134zM693 802q229 0 229 159q0 72 -59 117t-170 45t-172.5 -45t-61.5 -117q0 -73 60.5 -116t173.5 -43z" />
    <glyph glyph-name="colon" unicode=":" horiz-adv-x="590" 
d="M295.5 840q-95.5 0 -165.5 69t-70 163t70 163t165.5 69t165.5 -69t70 -163t-70 -163t-165.5 -69zM295.5 113q-95.5 0 -165.5 69t-70 163t70 163t165.5 69t165.5 -69t70 -163t-70 -163t-165.5 -69z" />
    <glyph glyph-name="semicolon" unicode=";" horiz-adv-x="675" 
d="M346.5 840q-95.5 0 -165.5 69t-70 163t70 163t165.5 69t165.5 -69t70 -163t-70 -163t-165.5 -69zM224 -253q26 179 22 407h-186v394h556v-87q0 -268 -31.5 -454t-70.5 -260h-290z" />
    <glyph glyph-name="less" unicode="&#x3c;" horiz-adv-x="1208" 
d="M1123 116l-1038 328v539l1038 335v-405l-686 -177v-45l686 -177v-398z" />
    <glyph glyph-name="equal" unicode="=" horiz-adv-x="1242" 
d="M85 763v394h1072v-394h-1072zM85 278v394h1072v-394h-1072z" />
    <glyph glyph-name="greater" unicode="&#x3e;" horiz-adv-x="1242" 
d="M119 116v398l687 177v45l-687 177v405l1038 -335v-539z" />
    <glyph glyph-name="question" unicode="?" horiz-adv-x="1365" 
d="M463 529q-12 92 11.5 157t70 96.5t102.5 56.5t105.5 39.5t83.5 41.5t34 68q0 48 -52.5 78t-136.5 30q-229 0 -229 -186h-426q-12 282 157.5 421.5t494.5 139.5q309 0 485.5 -105.5t176.5 -322.5q0 -79 -23 -137.5t-60.5 -92t-82 -58.5t-90 -44.5t-83 -40.5t-61.5 -56
t-24 -85h-453zM687.5 -27q-95.5 0 -165.5 69t-70 163t70 163t165.5 69t165.5 -69t70 -163t-70 -163t-165.5 -69z" />
    <glyph glyph-name="at" unicode="@" horiz-adv-x="1662" 
d="M1541 350q-72 -174 -262 -286t-448 -112q-357 0 -577 213.5t-220 551.5t220 551t577 213q353 0 575 -212.5t222 -531.5q0 -249 -259 -249q-113 0 -159 48.5t-39 135.5l39 424h-145l-32 -75h-23q-90 99 -245 99q-154 0 -261.5 -110.5t-107.5 -297.5q0 -189 108.5 -300.5
t270.5 -111.5q183 0 263 135h22q72 -135 261 -135q142 0 217 53zM787 935q82 0 131.5 -61.5t49.5 -165.5q0 -102 -49.5 -162.5t-131.5 -60.5q-84 0 -136 59.5t-52 163.5t52 165.5t136 61.5z" />
    <glyph glyph-name="A" unicode="A" 
d="M1237 0l-63 189h-614l-63 -189h-488l527 1434h662l527 -1434h-488zM676 539h382l-150 451h-82z" />
    <glyph glyph-name="B" unicode="B" horiz-adv-x="1576" 
d="M1312 739q116 -48 169 -127.5t53 -200.5q0 -191 -146 -301t-465 -110h-863v1434h889q155 0 267 -32t171 -87t84.5 -118.5t25.5 -138.5q0 -116 -46 -178.5t-139 -113.5v-27zM894 1072h-362v-212h362q79 0 114.5 33.5t35.5 70.5q0 43 -35 75.5t-115 32.5zM905 362
q80 0 115.5 37.5t35.5 81.5q0 46 -35.5 80.5t-115.5 34.5h-373v-234h373z" />
    <glyph glyph-name="C" unicode="C" horiz-adv-x="1629" 
d="M840 -48q-362 0 -584 210t-222 555t222 554.5t584 209.5q109 0 208 -19.5t194.5 -66.5t167 -117.5t122 -182.5t64.5 -252h-451q-58 230 -305 230q-143 0 -240 -98.5t-97 -257.5t96.5 -258t240.5 -99q247 0 305 234h451q-17 -176 -87 -305t-177.5 -200.5t-229.5 -104
t-262 -32.5z" />
    <glyph glyph-name="D" unicode="D" horiz-adv-x="1611" 
d="M780 1434q213 0 368.5 -53t246 -152t132 -225.5t41.5 -287t-41.5 -286.5t-132 -225t-246 -152t-368.5 -53h-720v1434h720zM780 396q145 0 229.5 78.5t84.5 242.5q0 166 -83.5 243.5t-230.5 77.5h-246v-642h246z" />
    <glyph glyph-name="E" unicode="E" horiz-adv-x="1411" 
d="M60 0v1434h1292v-379h-820v-183h789v-311h-789v-182h820v-379h-1292z" />
    <glyph glyph-name="F" unicode="F" horiz-adv-x="1408" 
d="M60 0v1434h1288v-395h-816v-194h780v-342h-780v-503h-472z" />
    <glyph glyph-name="G" unicode="G" horiz-adv-x="1670" 
d="M1603 792v-792h-253l-7 189q-79 -108 -214.5 -172.5t-316.5 -64.5q-335 0 -556.5 212.5t-221.5 552.5q0 345 223.5 554.5t595.5 209.5q131 0 252.5 -32t225 -96t174 -172.5t91.5 -248.5h-470q-24 58 -93.5 99.5t-168.5 41.5q-160 0 -260.5 -97t-100.5 -259
q0 -160 99 -258.5t248 -98.5q34 0 70.5 6t84.5 23t86.5 58t55.5 99h-316v246h772z" />
    <glyph glyph-name="H" unicode="H" horiz-adv-x="1621" 
d="M1089 1434h473v-1434h-473v509h-557v-509h-472v1434h472v-536h557v536z" />
    <glyph glyph-name="I" unicode="I" horiz-adv-x="592" 
d="M60 0v1434h472v-1434h-472z" />
    <glyph glyph-name="J" unicode="J" horiz-adv-x="1416" 
d="M688 -48q-118 0 -212.5 17t-178.5 60t-139.5 111t-86 174t-28.5 246h471q-2 -207 184 -207t186 248v833h473v-809q0 -365 -169 -519t-500 -154z" />
    <glyph glyph-name="K" unicode="K" horiz-adv-x="1614" 
d="M1623 0h-483l-382 510h-31l-196 -210v-300h-471v1434h471v-569h30l518 569h525l-582 -639z" />
    <glyph glyph-name="L" unicode="L" horiz-adv-x="1356" 
d="M60 0v1434h472v-1040h765v-394h-1237z" />
    <glyph glyph-name="M" unicode="M" horiz-adv-x="1812" 
d="M60 0v1434h595l234 -818h34l234 818h596v-1434h-451v635h-37l-183 -635h-352l-182 635h-38v-635h-450z" />
    <glyph glyph-name="N" unicode="N" horiz-adv-x="1641" 
d="M60 0v1434h542l477 -775h42v775h461v-1434h-531l-488 775h-42v-775h-461z" />
    <glyph glyph-name="O" unicode="O" horiz-adv-x="1693" 
d="M846.5 -48q-368.5 0 -590.5 210t-222 555t222 554.5t590.5 209.5t590.5 -209.5t222 -554.5t-222 -555t-590.5 -210zM846.5 360q146.5 0 245 95.5t98.5 261t-98.5 261t-245 95.5t-245 -95.5t-98.5 -261t98.5 -261t245 -95.5z" />
    <glyph glyph-name="P" unicode="P" horiz-adv-x="1539" 
d="M60 0v1434h814q300 0 461.5 -138.5t161.5 -421.5t-161.5 -421.5t-459.5 -138.5h-344v-314h-472zM532 707h301q87 0 137.5 42.5t50.5 124.5t-49.5 124.5t-136.5 42.5h-303v-334z" />
    <glyph glyph-name="Q" unicode="Q" horiz-adv-x="1693" 
d="M1659 734q0 -273 -198 -475l188 -191q-106 -138 -263 -268l-234 214q-155 -61 -305 -62q-369 0 -591 210t-222 555t222 554.5t591 209.5q367 0 589.5 -207t222.5 -540zM503 716.5q0 -165.5 98.5 -261t245 -95.5t245 95.5t98.5 261t-98.5 261t-245 95.5t-245 -95.5
t-98.5 -261z" />
    <glyph glyph-name="R" unicode="R" horiz-adv-x="1583" 
d="M1550 0h-465l-194 370h-359v-370h-472v1434h821q621 0 621 -548q0 -268 -208 -415zM532 1041v-317h316q89 0 135 41t46 117.5t-46 117.5t-135 41h-316z" />
    <glyph glyph-name="S" unicode="S" horiz-adv-x="1506" 
d="M742 -48q-375 2 -550 126.5t-166 401.5h425q9 -157 291 -159q130 -2 197.5 30.5t67.5 85.5q0 90 -166 114l-184 29q-239 39 -321 67q-227 79 -268 278q-9 46 -8 99q0 217 175 337t511 120q130 0 231.5 -15t191 -52t147.5 -95.5t89.5 -149t29.5 -212.5h-421
q-27 155 -278 156q-222 0 -222 -113q0 -87 135 -107l151 -26l88 -14l92.5 -13t91 -16.5t90.5 -22.5t82 -29.5t77 -40t62.5 -52t50 -68.5t30.5 -86.5t12 -106.5q0 -468 -734 -466z" />
    <glyph glyph-name="T" unicode="T" horiz-adv-x="1605" 
d="M1555 1434v-395h-516v-1039h-472v1039h-516v395h1504z" />
    <glyph glyph-name="U" unicode="U" horiz-adv-x="1604" 
d="M802 -48q-374 0 -558 164t-184 509v809h476v-797q0 -288 266 -289q270 0 270 289v797h473v-806q0 -346 -184.5 -511t-558.5 -165z" />
    <glyph glyph-name="V" unicode="V" 
d="M536 0l-527 1434h488l344 -990h52l344 990h488l-527 -1434h-662z" />
    <glyph glyph-name="W" unicode="W" horiz-adv-x="2201" 
d="M312 0l-278 1434h480l153 -929h41l205 929h376l204 -929h41l154 929h479l-278 -1434h-638l-130 689h-41l-129 -689h-639z" />
    <glyph glyph-name="X" unicode="X" horiz-adv-x="1587" 
d="M0 0l497 715v24l-485 695h509l250 -384h45l251 384h508l-481 -695v-24l493 -715h-514l-257 403h-45l-257 -403h-514z" />
    <glyph glyph-name="Y" unicode="Y" horiz-adv-x="1645" 
d="M1645 1434l-587 -989v-445h-473v447l-585 987h497l307 -540h37l308 540h496z" />
    <glyph glyph-name="Z" unicode="Z" horiz-adv-x="1416" 
d="M34 0v381l734 623v35h-717v395h1331v-381l-744 -623v-36h734v-394h-1338z" />
    <glyph glyph-name="bracketleft" unicode="[" horiz-adv-x="952" 
d="M60 -230v1894h833v-394h-361v-1106h361v-394h-833z" />
    <glyph glyph-name="backslash" unicode="\" horiz-adv-x="1235" 
d="M1219 0h-540l-662 1434h539z" />
    <glyph glyph-name="bracketright" unicode="]" horiz-adv-x="952" 
d="M893 -230h-833v394h360v1106h-360v394h833v-1894z" />
    <glyph glyph-name="asciicircum" unicode="^" horiz-adv-x="1338" 
d="M68 454l328 1038h539l335 -1038h-405l-177 686h-45l-177 -686h-398z" />
    <glyph glyph-name="underscore" unicode="_" horiz-adv-x="1228" 
d="M85 -394v394h1058v-394h-1058z" />
    <glyph glyph-name="grave" unicode="`" horiz-adv-x="541" 
d="M541 1161h-418l-123 298h418z" />
    <glyph glyph-name="a" unicode="a" 
d="M1237 0l-63 189h-614l-63 -189h-488l527 1434h662l527 -1434h-488zM676 539h382l-150 451h-82z" />
    <glyph glyph-name="b" unicode="b" horiz-adv-x="1576" 
d="M1312 739q116 -48 169 -127.5t53 -200.5q0 -191 -146 -301t-465 -110h-863v1434h889q155 0 267 -32t171 -87t84.5 -118.5t25.5 -138.5q0 -116 -46 -178.5t-139 -113.5v-27zM894 1072h-362v-212h362q79 0 114.5 33.5t35.5 70.5q0 43 -35 75.5t-115 32.5zM905 362
q80 0 115.5 37.5t35.5 81.5q0 46 -35.5 80.5t-115.5 34.5h-373v-234h373z" />
    <glyph glyph-name="c" unicode="c" horiz-adv-x="1629" 
d="M840 -48q-362 0 -584 210t-222 555t222 554.5t584 209.5q109 0 208 -19.5t194.5 -66.5t167 -117.5t122 -182.5t64.5 -252h-451q-58 230 -305 230q-143 0 -240 -98.5t-97 -257.5t96.5 -258t240.5 -99q247 0 305 234h451q-17 -176 -87 -305t-177.5 -200.5t-229.5 -104
t-262 -32.5z" />
    <glyph glyph-name="d" unicode="d" horiz-adv-x="1611" 
d="M780 1434q213 0 368.5 -53t246 -152t132 -225.5t41.5 -287t-41.5 -286.5t-132 -225t-246 -152t-368.5 -53h-720v1434h720zM780 396q145 0 229.5 78.5t84.5 242.5q0 166 -83.5 243.5t-230.5 77.5h-246v-642h246z" />
    <glyph glyph-name="e" unicode="e" horiz-adv-x="1411" 
d="M60 0v1434h1292v-379h-820v-183h789v-311h-789v-182h820v-379h-1292z" />
    <glyph glyph-name="f" unicode="f" horiz-adv-x="1408" 
d="M60 0v1434h1288v-395h-816v-194h780v-342h-780v-503h-472z" />
    <glyph glyph-name="g" unicode="g" horiz-adv-x="1670" 
d="M1603 792v-792h-253l-7 189q-79 -108 -214.5 -172.5t-316.5 -64.5q-335 0 -556.5 212.5t-221.5 552.5q0 345 223.5 554.5t595.5 209.5q131 0 252.5 -32t225 -96t174 -172.5t91.5 -248.5h-470q-24 58 -93.5 99.5t-168.5 41.5q-160 0 -260.5 -97t-100.5 -259
q0 -160 99 -258.5t248 -98.5q34 0 70.5 6t84.5 23t86.5 58t55.5 99h-316v246h772z" />
    <glyph glyph-name="h" unicode="h" horiz-adv-x="1621" 
d="M1089 1434h473v-1434h-473v509h-557v-509h-472v1434h472v-536h557v536z" />
    <glyph glyph-name="i" unicode="i" horiz-adv-x="592" 
d="M60 0v1434h472v-1434h-472z" />
    <glyph glyph-name="j" unicode="j" horiz-adv-x="1416" 
d="M688 -48q-118 0 -212.5 17t-178.5 60t-139.5 111t-86 174t-28.5 246h471q-2 -207 184 -207t186 248v833h473v-809q0 -365 -169 -519t-500 -154z" />
    <glyph glyph-name="k" unicode="k" horiz-adv-x="1614" 
d="M1623 0h-483l-382 510h-31l-196 -210v-300h-471v1434h471v-569h30l518 569h525l-582 -639z" />
    <glyph glyph-name="l" unicode="l" horiz-adv-x="1356" 
d="M60 0v1434h472v-1040h765v-394h-1237z" />
    <glyph glyph-name="m" unicode="m" horiz-adv-x="1812" 
d="M60 0v1434h595l234 -818h34l234 818h596v-1434h-451v635h-37l-183 -635h-352l-182 635h-38v-635h-450z" />
    <glyph glyph-name="n" unicode="n" horiz-adv-x="1641" 
d="M60 0v1434h542l477 -775h42v775h461v-1434h-531l-488 775h-42v-775h-461z" />
    <glyph glyph-name="o" unicode="o" horiz-adv-x="1693" 
d="M846.5 -48q-368.5 0 -590.5 210t-222 555t222 554.5t590.5 209.5t590.5 -209.5t222 -554.5t-222 -555t-590.5 -210zM846.5 360q146.5 0 245 95.5t98.5 261t-98.5 261t-245 95.5t-245 -95.5t-98.5 -261t98.5 -261t245 -95.5z" />
    <glyph glyph-name="p" unicode="p" horiz-adv-x="1539" 
d="M60 0v1434h814q300 0 461.5 -138.5t161.5 -421.5t-161.5 -421.5t-459.5 -138.5h-344v-314h-472zM532 707h301q87 0 137.5 42.5t50.5 124.5t-49.5 124.5t-136.5 42.5h-303v-334z" />
    <glyph glyph-name="q" unicode="q" horiz-adv-x="1693" 
d="M1659 734q0 -273 -198 -475l188 -191q-106 -138 -263 -268l-234 214q-155 -61 -305 -62q-369 0 -591 210t-222 555t222 554.5t591 209.5q367 0 589.5 -207t222.5 -540zM503 716.5q0 -165.5 98.5 -261t245 -95.5t245 95.5t98.5 261t-98.5 261t-245 95.5t-245 -95.5
t-98.5 -261z" />
    <glyph glyph-name="r" unicode="r" horiz-adv-x="1583" 
d="M1550 0h-465l-194 370h-359v-370h-472v1434h821q621 0 621 -548q0 -268 -208 -415zM532 1041v-317h316q89 0 135 41t46 117.5t-46 117.5t-135 41h-316z" />
    <glyph glyph-name="s" unicode="s" horiz-adv-x="1506" 
d="M742 -48q-375 2 -550 126.5t-166 401.5h425q9 -157 291 -159q130 -2 197.5 30.5t67.5 85.5q0 90 -166 114l-184 29q-239 39 -321 67q-227 79 -268 278q-9 46 -8 99q0 217 175 337t511 120q130 0 231.5 -15t191 -52t147.5 -95.5t89.5 -149t29.5 -212.5h-421
q-27 155 -278 156q-222 0 -222 -113q0 -87 135 -107l151 -26l88 -14l92.5 -13t91 -16.5t90.5 -22.5t82 -29.5t77 -40t62.5 -52t50 -68.5t30.5 -86.5t12 -106.5q0 -468 -734 -466z" />
    <glyph glyph-name="t" unicode="t" horiz-adv-x="1605" 
d="M1555 1434v-395h-516v-1039h-472v1039h-516v395h1504z" />
    <glyph glyph-name="u" unicode="u" horiz-adv-x="1604" 
d="M802 -48q-374 0 -558 164t-184 509v809h476v-797q0 -288 266 -289q270 0 270 289v797h473v-806q0 -346 -184.5 -511t-558.5 -165z" />
    <glyph glyph-name="v" unicode="v" 
d="M536 0l-527 1434h488l344 -990h52l344 990h488l-527 -1434h-662z" />
    <glyph glyph-name="w" unicode="w" horiz-adv-x="2201" 
d="M312 0l-278 1434h480l153 -929h41l205 929h376l204 -929h41l154 929h479l-278 -1434h-638l-130 689h-41l-129 -689h-639z" />
    <glyph glyph-name="x" unicode="x" horiz-adv-x="1587" 
d="M0 0l497 715v24l-485 695h509l250 -384h45l251 384h508l-481 -695v-24l493 -715h-514l-257 403h-45l-257 -403h-514z" />
    <glyph glyph-name="y" unicode="y" horiz-adv-x="1645" 
d="M1645 1434l-587 -989v-445h-473v447l-585 987h497l307 -540h37l308 540h496z" />
    <glyph glyph-name="z" unicode="z" horiz-adv-x="1416" 
d="M34 0v381l734 623v35h-717v395h1331v-381l-744 -623v-36h734v-394h-1338z" />
    <glyph glyph-name="braceleft" unicode="{" horiz-adv-x="1206" 
d="M538 -230q-253 0 -253 252v434l-208 240v41l208 241v433q0 253 253 253h592v-394h-301q-72 0 -71 -58v-237l-193 -238v-41l193 -237v-237q0 -58 71 -58h301v-394h-592z" />
    <glyph glyph-name="bar" unicode="|" horiz-adv-x="592" 
d="M60 -171v1775h472v-1775h-472z" />
    <glyph glyph-name="braceright" unicode="}" horiz-adv-x="1206" 
d="M669 -230h-592v394h300q72 0 72 58v237l193 237v41l-193 238v237q0 58 -72 58h-300v394h592q253 0 253 -253v-433l208 -241v-41l-208 -240v-434q0 -252 -253 -252z" />
    <glyph glyph-name="asciitilde" unicode="~" horiz-adv-x="1218" 
d="M799 527q-90 2 -222.5 63.5t-197.5 61.5q-58 0 -92 -27.5t-38 -74.5h-160q-19 125 26 211.5t125.5 124t179.5 37.5q89 0 220 -61.5t196 -62.5q123 5 133 102h161q15 -94 -8 -167.5t-74 -117t-114 -65.5t-135 -24z" />
    <glyph glyph-name="exclamdown" unicode="&#xa1;" horiz-adv-x="889" 
d="M297 1092q96 0 165.5 -69t69.5 -163t-69.5 -163t-165.5 -69t-166 69t-70 163t70 163t166 69zM145 522h304l92 -891h-488z" />
    <glyph glyph-name="cent" unicode="&#xa2;" horiz-adv-x="1488" 
d="M766 393q225 0 278 211h410q-15 -160 -79 -277t-162.5 -181t-208.5 -94t-238 -30q-126 0 -245 33l-26 -55h-160l49 108q-166 85 -258 243t-92 366q0 312 201.5 503t530.5 191q111 0 210 -22l21 45h160l-43 -91q302 -137 340 -512h-410q-26 99 -93 155l-270 -583
q41 -10 85 -10zM461 717q0 -150 94 -241l259 562q-31 3 -48 3q-130 0 -217.5 -89.5t-87.5 -234.5z" />
    <glyph glyph-name="sterling" unicode="&#xa3;" horiz-adv-x="1378" 
d="M700 1084q-80 0 -129.5 -38.5t-49.5 -105.5q0 -34 9 -62t34 -68t30 -51h519v-196h-499q-20 -123 -133 -191v-14h860v-358h-1307v358q80 36 137.5 93.5t74.5 111.5h-212v196h145q-34 51 -50 79.5t-35 85t-19 112.5q0 198 174 316.5t461 118.5q309 0 484.5 -139t146.5 -392
h-448q-21 144 -193 144z" />
    <glyph glyph-name="currency" unicode="&#xa4;" horiz-adv-x="1392" 
d="M1167 975q0 -87 -32 -168l87 -87l-210 -208l-70 70q-113 -67 -244 -67t-246 69l-71 -72l-210 208l88 89q-31 77 -30 166q0 90 36 175l-94 96l210 208l83 -82q108 61 234 62q123 0 232 -60l82 80l210 -208l-92 -92q37 -85 37 -179zM698 792q60 0 102.5 23t60.5 57t25 59
t7 43.5t-7 43.5t-25 60t-60.5 59t-102.5 24t-103.5 -24t-61.5 -59t-24.5 -60.5t-6.5 -42.5q0 -19 6.5 -44t24.5 -59t61.5 -57t103.5 -23z" />
    <glyph glyph-name="yen" unicode="&#xa5;" horiz-adv-x="1645" 
d="M1645 1434l-490 -825h354v-186h-451v-68h451v-188h-451v-167h-473v167h-445v188h445v68h-445v186h350l-490 825h497l307 -540h37l308 540h496z" />
    <glyph glyph-name="brokenbar" unicode="&#xa6;" horiz-adv-x="592" 
d="M60 780v824h472v-824h-472zM60 -171v825h472v-825h-472z" />
    <glyph glyph-name="section" unicode="&#xa7;" horiz-adv-x="1510" 
d="M1353 335q126 -101 127 -291q0 -468 -734 -466q-377 2 -553 127.5t-167 403.5h428q9 -160 292 -162q130 -2 197 30.5t67 85.5q0 94 -169 118l-177 29q-241 38 -324 65q-244 82 -273 288q-3 29 -4 62q0 191 169 286q-169 104 -169 325q0 217 175 337t511 120
q130 0 231.5 -15.5t191 -52t147.5 -95.5t89.5 -151t30.5 -213h-422q-27 159 -278 158q-222 0 -222 -112q0 -87 138 -111l145 -26q36 -7 109 -18l118 -17q45 -7 112.5 -24.5t109 -35t90.5 -50t76 -73t46 -98.5t19 -129q-1 -194 -127 -295zM659 515l121 -22q116 -12 173 33.5
t57 104.5q0 43 -37.5 82.5t-131.5 52.5l-141 24q-67 3 -125 -32.5t-58 -110.5q0 -36 31.5 -77t110.5 -55z" />
    <glyph glyph-name="dieresis" unicode="&#xa8;" horiz-adv-x="865" 
d="M172.5 1166q-71.5 0 -122 47t-50.5 116.5t50.5 116.5t122 47t122 -47t50.5 -116.5t-50.5 -116.5t-122 -47zM693 1166q-72 0 -122 47t-50 116.5t50 116.5t122 47t122 -47t50 -116.5t-50 -116.5t-122 -47z" />
    <glyph glyph-name="copyright" unicode="&#xa9;" horiz-adv-x="1071" 
d="M534 551q-207 0 -336.5 128t-129.5 329.5t130 332t336 130.5q208 0 339 -129.5t131 -332.5q0 -201 -131 -329.5t-339 -128.5zM541 742q92 0 164.5 49t88.5 149l-135 -1q-41 -85 -127 -86q-60 0 -99.5 40.5t-39.5 115.5q0 73 40 113t99 40q84 0 127 -80h135
q-15 99 -88 148.5t-165 49.5q-123 0 -200.5 -74t-77.5 -197q0 -121 76.5 -194t201.5 -73z" />
    <glyph glyph-name="ordfeminine" unicode="&#xaa;" horiz-adv-x="935" 
d="M652 1434h215v-739h-215l-36 63q-85 -63 -189 -63q-145 0 -252 109t-107 264.5t106 265.5t253 110q108 0 196 -68zM450.5 968q46.5 0 75.5 29t29 71.5t-30 74t-74.5 31.5t-75 -31.5t-30.5 -74t29.5 -71.5t76 -29z" />
    <glyph glyph-name="guillemotleft" unicode="&#xab;" horiz-adv-x="1629" 
d="M922 205h-489l-331 512l331 512h489l-331 -512zM1527 205h-488l-331 512l331 512h488l-331 -512z" />
    <glyph glyph-name="logicalnot" unicode="&#xac;" horiz-adv-x="1232" 
d="M754 468v177h-771v321h1164v-498h-393z" />
    <glyph glyph-name="uni00AD" unicode="&#xad;" horiz-adv-x="1126" 
d="M68 512v394h990v-394h-990z" />
    <glyph glyph-name="registered" unicode="&#xae;" horiz-adv-x="1071" 
d="M534 551q-207 0 -336.5 128t-129.5 329.5t130 332t336 130.5q208 0 339 -129.5t131 -332.5q0 -201 -131 -329.5t-339 -128.5zM312 737h135v164h125l92 -164h147l-115 191q99 49 99 159q0 89 -59.5 136.5t-168.5 47.5h-255v-534zM447 1012v149h123q82 0 82 -74
q0 -34 -23 -54.5t-59 -20.5h-123z" />
    <glyph glyph-name="macron" unicode="&#xaf;" horiz-adv-x="785" 
d="M0 1167v343h785v-343h-785z" />
    <glyph glyph-name="degree" unicode="&#xb0;" horiz-adv-x="904" 
d="M452 666q-169 0 -280 110t-111 279t111 279t280 110t280 -110t111 -279t-111 -279t-280 -110zM452 963q51 0 73.5 29.5t22.5 62t-22.5 62.5t-73.5 30t-73 -30t-22 -62.5t22 -62t73 -29.5z" />
    <glyph glyph-name="plusminus" unicode="&#xb1;" horiz-adv-x="1240" 
d="M884 1251h408v-374h-408v-406h-394v406h-406v374h406v408h394v-408zM84 0v394h1071v-394h-1071z" />
    <glyph glyph-name="acute" unicode="&#xb4;" horiz-adv-x="541" 
d="M0 1161l123 298h418l-123 -298h-418z" />
    <glyph glyph-name="uni00B5" unicode="&#xb5;" horiz-adv-x="1413" 
d="M881 1161h472v-1161h-464l-8 152h-45q-53 -80 -134.5 -123.5t-169.5 -52.5v-232h-472v1417h472v-640q0 -167 176 -168q79 0 126 44.5t47 104.5v659z" />
    <glyph glyph-name="paragraph" unicode="&#xb6;" horiz-adv-x="2176" 
d="M964 0v328h-251q-326 0 -502.5 136.5t-176.5 416.5t176.5 416.5t504.5 136.5h722v-1434h-473zM1644 0v1434h472v-1434h-472z" />
    <glyph glyph-name="periodcentered" unicode="&#xb7;" horiz-adv-x="744" 
d="M372 485q-96 0 -165.5 69t-69.5 163t69.5 163t165.5 69t166 -69t70 -163t-70 -163t-166 -69z" />
    <glyph glyph-name="cedilla" unicode="&#xb8;" horiz-adv-x="440" 
d="M242 -58q80 -5 139 -55.5t59 -140.5q0 -131 -128.5 -185t-311.5 -17v180q68 -15 110 -13t60.5 10t18.5 18q0 12 -18.5 23t-60.5 15.5t-110 -13.5v113l160 123h159z" />
    <glyph glyph-name="ordmasculine" unicode="&#xba;" horiz-adv-x="877" 
d="M438.5 698q-153.5 0 -262 108.5t-108.5 261.5q0 157 108.5 266.5t262 109.5t262 -109.5t108.5 -266.5q0 -154 -108.5 -262t-262 -108zM438.5 968q44.5 0 73.5 27t29 73t-29 76t-73.5 30t-73.5 -30t-29 -76t29 -73t73.5 -27z" />
    <glyph glyph-name="guillemotright" unicode="&#xbb;" horiz-adv-x="1629" 
d="M102 205l331 512l-331 512h489l331 -512l-331 -512h-489zM708 205l331 512l-331 512h488l331 -512l-331 -512h-488z" />
    <glyph glyph-name="questiondown" unicode="&#xbf;" horiz-adv-x="1382" 
d="M694.5 1092q95.5 0 165.5 -69t70 -163t-70 -163t-165.5 -69t-165.5 69t-70 163t70 163t165.5 69zM920 536q12 -92 -12 -157t-70 -96.5t-102.5 -56.5t-106 -39.5t-83.5 -41.5t-34 -68q0 -48 53 -78t136 -30q229 0 229 186h427q12 -282 -158 -421.5t-494 -139.5
q-309 0 -485.5 105.5t-176.5 322.5q0 79 23 137.5t60.5 92t82 58.5t89.5 44.5t82.5 40.5t61.5 56t24 85h454z" />
    <glyph glyph-name="Agrave" unicode="&#xc0;" 
d="M1080 1519h-418l-123 299h418zM1237 0l-63 189h-614l-63 -189h-488l527 1434h662l527 -1434h-488zM676 539h382l-150 451h-82z" />
    <glyph glyph-name="Aacute" unicode="&#xc1;" 
d="M1196 1818l-123 -299h-418l123 299h418zM1237 0l-63 189h-614l-63 -189h-488l527 1434h662l527 -1434h-488zM676 539h382l-150 451h-82z" />
    <glyph glyph-name="Acircumflex" unicode="&#xc2;" 
d="M819 1603l-71 -84h-391l225 299h570l225 -299h-391l-71 84h-96zM1237 0l-63 189h-614l-63 -189h-488l527 1434h662l527 -1434h-488zM676 539h382l-150 451h-82z" />
    <glyph glyph-name="Atilde" unicode="&#xc3;" 
d="M577 1533h-128q-22 147 59 222.5t205 75.5q72 0 177 -49.5t158 -49.5q97 0 106 82h128q22 -147 -59 -222.5t-206 -75.5q-72 0 -177.5 49.5t-156.5 49.5q-97 0 -106 -82zM1237 0l-63 189h-614l-63 -189h-488l527 1434h662l527 -1434h-488zM676 539h382l-150 451h-82z" />
    <glyph glyph-name="Adieresis" unicode="&#xc4;" 
d="M606 1524q-72 0 -122.5 47t-50.5 117t50.5 117t122.5 47t122 -47t50 -117t-50 -117t-122 -47zM1126.5 1524q-71.5 0 -122 47t-50.5 117t50.5 117t122 47t122 -47t50.5 -117t-50.5 -117t-122 -47zM1237 0l-63 189h-614l-63 -189h-488l527 1434h662l527 -1434h-488z
M676 539h382l-150 451h-82z" />
    <glyph glyph-name="Aring" unicode="&#xc5;" 
d="M1237 0l-63 189h-614l-63 -189h-488l527 1434h220q-61 29 -97 87t-36 128q0 102 71 173t173 71t171.5 -71t69.5 -173q0 -70 -36 -128t-96 -87h222l527 -1434h-488zM867 1703q-24 0 -37.5 -13.5t-13.5 -37.5q0 -51 51 -51q24 0 38.5 13.5t12.5 37.5q-5 51 -51 51zM676 539
h382l-150 451h-82z" />
    <glyph glyph-name="AE" unicode="&#xc6;" horiz-adv-x="2384" 
d="M2324 1055h-819v-183h789v-311h-789v-182h819v-379h-1291v193h-461l-87 -193h-476l645 1434h1670v-379zM727 539h306v500h-82z" />
    <glyph glyph-name="Ccedilla" unicode="&#xc7;" horiz-adv-x="1629" 
d="M840 360q247 0 305 234h451q-15 -166 -79.5 -290.5t-162.5 -197t-209.5 -109t-243.5 -43.5l-15 -12q80 -5 139 -55.5t59 -140.5q0 -131 -129 -185t-312 -17v180q68 -15 110 -13t61 10t19 18q0 12 -19 23t-60.5 15.5t-110.5 -13.5v113l103 79q-324 29 -518 234.5
t-194 526.5q0 345 222 554.5t584 209.5q109 0 208 -19.5t194.5 -66.5t167 -117.5t122 -182.5t64.5 -252h-451q-58 230 -305 230q-143 0 -240 -98.5t-97 -257.5t97 -258t240 -99z" />
    <glyph glyph-name="Egrave" unicode="&#xc8;" horiz-adv-x="1411" 
d="M906 1519h-418l-123 299h418zM60 0v1434h1292v-379h-820v-183h789v-311h-789v-182h820v-379h-1292z" />
    <glyph glyph-name="Eacute" unicode="&#xc9;" horiz-adv-x="1411" 
d="M481 1519l123 299h418l-123 -299h-418zM60 0v1434h1292v-379h-820v-183h789v-311h-789v-182h820v-379h-1292z" />
    <glyph glyph-name="Ecircumflex" unicode="&#xca;" horiz-adv-x="1411" 
d="M183 1519l225 299h570l225 -299h-391l-71 84h-96l-72 -84h-390zM60 0v1434h1292v-379h-820v-183h789v-311h-789v-182h820v-379h-1292z" />
    <glyph glyph-name="Edieresis" unicode="&#xcb;" horiz-adv-x="1411" 
d="M431.5 1524q-71.5 0 -122 47t-50.5 117t50.5 117t122 47t122 -47t50.5 -117t-50.5 -117t-122 -47zM952.5 1524q-71.5 0 -122 47t-50.5 117t50.5 117t122 47t122 -47t50.5 -117t-50.5 -117t-122 -47zM60 0v1434h1292v-379h-820v-183h789v-311h-789v-182h820v-379h-1292z
" />
    <glyph glyph-name="Igrave" unicode="&#xcc;" horiz-adv-x="592" 
d="M509 1519h-419l-122 299h418zM60 0v1434h472v-1434h-472z" />
    <glyph glyph-name="Iacute" unicode="&#xcd;" horiz-adv-x="592" 
d="M84 1519l123 299h418l-123 -299h-418zM60 0v1434h472v-1434h-472z" />
    <glyph glyph-name="Icircumflex" unicode="&#xce;" horiz-adv-x="592" 
d="M-215 1519l225 299h570l226 -299h-391l-72 84h-96l-71 -84h-391zM60 0v1434h472v-1434h-472z" />
    <glyph glyph-name="Idieresis" unicode="&#xcf;" horiz-adv-x="592" 
d="M34 1524q-72 0 -122 47t-50 117t50 117t122 47t122.5 -47t50.5 -117t-50.5 -117t-122.5 -47zM554.5 1524q-71.5 0 -122 47t-50.5 117t50.5 117t122 47t122 -47t50.5 -117t-50.5 -117t-122 -47zM60 0v1434h472v-1434h-472z" />
    <glyph glyph-name="Eth" unicode="&#xd0;" horiz-adv-x="1710" 
d="M879 1434q213 0 368.5 -53t246 -152t132 -225.5t41.5 -287t-41.5 -286.5t-132 -225t-246 -152t-368.5 -53h-720v541h-150v343h150v550h720zM879 396q145 0 229.5 78.5t84.5 242.5q0 166 -83.5 243.5t-230.5 77.5h-246v-154h241v-343h-241v-145h246z" />
    <glyph glyph-name="Ntilde" unicode="&#xd1;" horiz-adv-x="1641" 
d="M971 1516q-73 0 -177.5 49.5t-156.5 49.5q-97 0 -106 -82h-128q-22 147 59 222.5t205 75.5q72 0 177 -49.5t158 -49.5q97 0 106 82h128q22 -147 -59 -222.5t-206 -75.5zM60 0v1434h542l477 -775h42v775h461v-1434h-531l-488 775h-42v-775h-461z" />
    <glyph glyph-name="Ograve" unicode="&#xd2;" horiz-adv-x="1693" 
d="M1060 1526h-418l-123 298h418zM846.5 -48q-368.5 0 -590.5 210t-222 555t222 554.5t590.5 209.5t590.5 -209.5t222 -554.5t-222 -555t-590.5 -210zM846.5 360q146.5 0 245 95.5t98.5 261t-98.5 261t-245 95.5t-245 -95.5t-98.5 -261t98.5 -261t245 -95.5z" />
    <glyph glyph-name="Oacute" unicode="&#xd3;" horiz-adv-x="1693" 
d="M635 1526l123 298h418l-123 -298h-418zM846.5 -48q-368.5 0 -590.5 210t-222 555t222 554.5t590.5 209.5t590.5 -209.5t222 -554.5t-222 -555t-590.5 -210zM846.5 360q146.5 0 245 95.5t98.5 261t-98.5 261t-245 95.5t-245 -95.5t-98.5 -261t98.5 -261t245 -95.5z" />
    <glyph glyph-name="Ocircumflex" unicode="&#xd4;" horiz-adv-x="1693" 
d="M336 1526l225 298h571l225 -298h-391l-72 83h-95l-72 -83h-391zM846.5 -48q-368.5 0 -590.5 210t-222 555t222 554.5t590.5 209.5t590.5 -209.5t222 -554.5t-222 -555t-590.5 -210zM846.5 360q146.5 0 245 95.5t98.5 261t-98.5 261t-245 95.5t-245 -95.5t-98.5 -261
t98.5 -261t245 -95.5z" />
    <glyph glyph-name="Otilde" unicode="&#xd5;" horiz-adv-x="1693" 
d="M997 1522q-72 0 -178 49.5t-157 49.5q-97 0 -106 -82h-128q-22 147 59 223t206 76q72 0 177 -49.5t157 -49.5q97 0 106 82h128q22 -147 -58.5 -223t-205.5 -76zM846.5 -48q-368.5 0 -590.5 210t-222 555t222 554.5t590.5 209.5t590.5 -209.5t222 -554.5t-222 -555
t-590.5 -210zM846.5 360q146.5 0 245 95.5t98.5 261t-98.5 261t-245 95.5t-245 -95.5t-98.5 -261t98.5 -261t245 -95.5z" />
    <glyph glyph-name="Odieresis" unicode="&#xd6;" horiz-adv-x="1693" 
d="M585.5 1531q-71.5 0 -122 47t-50.5 117t50.5 117t122 47t122 -47t50.5 -117t-50.5 -117t-122 -47zM1106 1531q-72 0 -122 47t-50 117t50 117t122 47t122 -47t50 -117t-50 -117t-122 -47zM846.5 -48q-368.5 0 -590.5 210t-222 555t222 554.5t590.5 209.5t590.5 -209.5
t222 -554.5t-222 -555t-590.5 -210zM846.5 360q146.5 0 245 95.5t98.5 261t-98.5 261t-245 95.5t-245 -95.5t-98.5 -261t98.5 -261t245 -95.5z" />
    <glyph glyph-name="multiply" unicode="&#xd7;" horiz-adv-x="1288" 
d="M1203 949l-288 -289l288 -288l-264 -264l-289 288l-286 -287l-280 278l288 289l-288 287l264 262l287 -286l288 288z" />
    <glyph glyph-name="Oslash" unicode="&#xd8;" horiz-adv-x="1693" 
d="M1287 1381q177 -96 274.5 -267.5t97.5 -396.5q0 -345 -222 -555t-590 -210q-109 0 -210 21l-28 -60h-285l69 148q-171 97 -265 266.5t-94 389.5q0 345 222 554.5t591 209.5q108 0 192 -17l28 58h285zM503 717q0 -143 81 -241l276 597h-13q-147 0 -245.5 -95t-98.5 -261z
M847 360q147 0 245 95.5t98 261.5q0 157 -93 254l-281 -609q11 -2 31 -2z" />
    <glyph glyph-name="Ugrave" unicode="&#xd9;" horiz-adv-x="1604" 
d="M1015 1519h-418l-123 299h419zM802 -48q-374 0 -558 164t-184 509v809h476v-797q0 -288 266 -289q270 0 270 289v797h473v-806q0 -346 -184.5 -511t-558.5 -165z" />
    <glyph glyph-name="Uacute" unicode="&#xda;" horiz-adv-x="1604" 
d="M591 1519l122 299h419l-123 -299h-418zM802 -48q-374 0 -558 164t-184 509v809h476v-797q0 -288 266 -289q270 0 270 289v797h473v-806q0 -346 -184.5 -511t-558.5 -165z" />
    <glyph glyph-name="Ucircumflex" unicode="&#xdb;" horiz-adv-x="1604" 
d="M292 1519l225 299h570l225 -299h-390l-72 84h-96l-71 -84h-391zM802 -48q-374 0 -558 164t-184 509v809h476v-797q0 -288 266 -289q270 0 270 289v797h473v-806q0 -346 -184.5 -511t-558.5 -165z" />
    <glyph glyph-name="Udieresis" unicode="&#xdc;" horiz-adv-x="1604" 
d="M541 1524q-72 0 -122 47t-50 117t50 117t122 47t122 -47t50 -117t-50 -117t-122 -47zM1061.5 1524q-71.5 0 -122 47t-50.5 117t50.5 117t122 47t122 -47t50.5 -117t-50.5 -117t-122 -47zM802 -48q-374 0 -558 164t-184 509v809h476v-797q0 -288 266 -289q270 0 270 289
v797h473v-806q0 -346 -184.5 -511t-558.5 -165z" />
    <glyph glyph-name="Yacute" unicode="&#xdd;" horiz-adv-x="1645" 
d="M1152 1818l-123 -299h-418l123 299h418zM1645 1434l-587 -989v-445h-473v447l-585 987h497l307 -540h37l308 540h496z" />
    <glyph glyph-name="Thorn" unicode="&#xde;" horiz-adv-x="1505" 
d="M782 1270q328 0 504.5 -136.5t176.5 -416.5t-177 -416.5t-503 -136.5h-251v-164h-472v1434h472v-164h250zM792 556q195 0 194 161q0 80 -52 120t-140 40h-262v-321h260z" />
    <glyph glyph-name="germandbls" unicode="&#xdf;" horiz-adv-x="1518" 
d="M60 0v956q0 145 54.5 249t152 160.5t210 81t250.5 24.5q181 0 313 -36t203 -97t103.5 -129.5t32.5 -146.5q0 -181 -162 -272v-31q259 -96 259 -348q0 -184 -150 -297.5t-478 -113.5h-222v357h210q92 0 132.5 36.5t40.5 89.5q0 49 -40.5 87t-132.5 38h-210v254h169
q75 0 108.5 29t33.5 66q0 113 -183 113q-222 0 -222 -138v-932h-472z" />
    <glyph glyph-name="agrave" unicode="&#xe0;" 
d="M1080 1519h-418l-123 299h418zM1237 0l-63 189h-614l-63 -189h-488l527 1434h662l527 -1434h-488zM676 539h382l-150 451h-82z" />
    <glyph glyph-name="aacute" unicode="&#xe1;" 
d="M1196 1818l-123 -299h-418l123 299h418zM1237 0l-63 189h-614l-63 -189h-488l527 1434h662l527 -1434h-488zM676 539h382l-150 451h-82z" />
    <glyph glyph-name="acircumflex" unicode="&#xe2;" 
d="M819 1603l-71 -84h-391l225 299h570l225 -299h-391l-71 84h-96zM1237 0l-63 189h-614l-63 -189h-488l527 1434h662l527 -1434h-488zM676 539h382l-150 451h-82z" />
    <glyph glyph-name="atilde" unicode="&#xe3;" 
d="M577 1533h-128q-22 147 59 222.5t205 75.5q72 0 177 -49.5t158 -49.5q97 0 106 82h128q22 -147 -59 -222.5t-206 -75.5q-72 0 -177.5 49.5t-156.5 49.5q-97 0 -106 -82zM1237 0l-63 189h-614l-63 -189h-488l527 1434h662l527 -1434h-488zM676 539h382l-150 451h-82z" />
    <glyph glyph-name="adieresis" unicode="&#xe4;" 
d="M606 1524q-72 0 -122.5 47t-50.5 117t50.5 117t122.5 47t122 -47t50 -117t-50 -117t-122 -47zM1126.5 1524q-71.5 0 -122 47t-50.5 117t50.5 117t122 47t122 -47t50.5 -117t-50.5 -117t-122 -47zM1237 0l-63 189h-614l-63 -189h-488l527 1434h662l527 -1434h-488z
M676 539h382l-150 451h-82z" />
    <glyph glyph-name="aring" unicode="&#xe5;" 
d="M1237 0l-63 189h-614l-63 -189h-488l527 1434h220q-61 29 -97 87t-36 128q0 102 71 173t173 71t171.5 -71t69.5 -173q0 -70 -36 -128t-96 -87h222l527 -1434h-488zM867 1703q-24 0 -37.5 -13.5t-13.5 -37.5q0 -51 51 -51q24 0 38.5 13.5t12.5 37.5q-5 51 -51 51zM676 539
h382l-150 451h-82z" />
    <glyph glyph-name="ae" unicode="&#xe6;" horiz-adv-x="2384" 
d="M2324 1055h-819v-183h789v-311h-789v-182h819v-379h-1291v193h-461l-87 -193h-476l645 1434h1670v-379zM727 539h306v500h-82z" />
    <glyph glyph-name="ccedilla" unicode="&#xe7;" horiz-adv-x="1629" 
d="M840 360q247 0 305 234h451q-15 -166 -79.5 -290.5t-162.5 -197t-209.5 -109t-243.5 -43.5l-15 -12q80 -5 139 -55.5t59 -140.5q0 -131 -129 -185t-312 -17v180q68 -15 110 -13t61 10t19 18q0 12 -19 23t-60.5 15.5t-110.5 -13.5v113l103 79q-324 29 -518 234.5
t-194 526.5q0 345 222 554.5t584 209.5q109 0 208 -19.5t194.5 -66.5t167 -117.5t122 -182.5t64.5 -252h-451q-58 230 -305 230q-143 0 -240 -98.5t-97 -257.5t97 -258t240 -99z" />
    <glyph glyph-name="egrave" unicode="&#xe8;" horiz-adv-x="1411" 
d="M906 1519h-418l-123 299h418zM60 0v1434h1292v-379h-820v-183h789v-311h-789v-182h820v-379h-1292z" />
    <glyph glyph-name="eacute" unicode="&#xe9;" horiz-adv-x="1411" 
d="M481 1519l123 299h418l-123 -299h-418zM60 0v1434h1292v-379h-820v-183h789v-311h-789v-182h820v-379h-1292z" />
    <glyph glyph-name="ecircumflex" unicode="&#xea;" horiz-adv-x="1411" 
d="M183 1519l225 299h570l225 -299h-391l-71 84h-96l-72 -84h-390zM60 0v1434h1292v-379h-820v-183h789v-311h-789v-182h820v-379h-1292z" />
    <glyph glyph-name="edieresis" unicode="&#xeb;" horiz-adv-x="1411" 
d="M431.5 1524q-71.5 0 -122 47t-50.5 117t50.5 117t122 47t122 -47t50.5 -117t-50.5 -117t-122 -47zM952.5 1524q-71.5 0 -122 47t-50.5 117t50.5 117t122 47t122 -47t50.5 -117t-50.5 -117t-122 -47zM60 0v1434h1292v-379h-820v-183h789v-311h-789v-182h820v-379h-1292z
" />
    <glyph glyph-name="igrave" unicode="&#xec;" horiz-adv-x="592" 
d="M509 1519h-419l-122 299h418zM60 0v1434h472v-1434h-472z" />
    <glyph glyph-name="iacute" unicode="&#xed;" horiz-adv-x="592" 
d="M84 1519l123 299h418l-123 -299h-418zM60 0v1434h472v-1434h-472z" />
    <glyph glyph-name="icircumflex" unicode="&#xee;" horiz-adv-x="592" 
d="M-215 1519l225 299h570l226 -299h-391l-72 84h-96l-71 -84h-391zM60 0v1434h472v-1434h-472z" />
    <glyph glyph-name="idieresis" unicode="&#xef;" horiz-adv-x="592" 
d="M34 1524q-72 0 -122 47t-50 117t50 117t122 47t122.5 -47t50.5 -117t-50.5 -117t-122.5 -47zM554.5 1524q-71.5 0 -122 47t-50.5 117t50.5 117t122 47t122 -47t50.5 -117t-50.5 -117t-122 -47zM60 0v1434h472v-1434h-472z" />
    <glyph glyph-name="eth" unicode="&#xf0;" horiz-adv-x="1710" 
d="M879 1434q213 0 368.5 -53t246 -152t132 -225.5t41.5 -287t-41.5 -286.5t-132 -225t-246 -152t-368.5 -53h-720v541h-150v343h150v550h720zM879 396q145 0 229.5 78.5t84.5 242.5q0 166 -83.5 243.5t-230.5 77.5h-246v-154h241v-343h-241v-145h246z" />
    <glyph glyph-name="ntilde" unicode="&#xf1;" horiz-adv-x="1641" 
d="M971 1516q-73 0 -177.5 49.5t-156.5 49.5q-97 0 -106 -82h-128q-22 147 59 222.5t205 75.5q72 0 177 -49.5t158 -49.5q97 0 106 82h128q22 -147 -59 -222.5t-206 -75.5zM60 0v1434h542l477 -775h42v775h461v-1434h-531l-488 775h-42v-775h-461z" />
    <glyph glyph-name="ograve" unicode="&#xf2;" horiz-adv-x="1693" 
d="M1060 1526h-418l-123 298h418zM846.5 -48q-368.5 0 -590.5 210t-222 555t222 554.5t590.5 209.5t590.5 -209.5t222 -554.5t-222 -555t-590.5 -210zM846.5 360q146.5 0 245 95.5t98.5 261t-98.5 261t-245 95.5t-245 -95.5t-98.5 -261t98.5 -261t245 -95.5z" />
    <glyph glyph-name="oacute" unicode="&#xf3;" horiz-adv-x="1693" 
d="M635 1526l123 298h418l-123 -298h-418zM846.5 -48q-368.5 0 -590.5 210t-222 555t222 554.5t590.5 209.5t590.5 -209.5t222 -554.5t-222 -555t-590.5 -210zM846.5 360q146.5 0 245 95.5t98.5 261t-98.5 261t-245 95.5t-245 -95.5t-98.5 -261t98.5 -261t245 -95.5z" />
    <glyph glyph-name="ocircumflex" unicode="&#xf4;" horiz-adv-x="1693" 
d="M336 1526l225 298h571l225 -298h-391l-72 83h-95l-72 -83h-391zM846.5 -48q-368.5 0 -590.5 210t-222 555t222 554.5t590.5 209.5t590.5 -209.5t222 -554.5t-222 -555t-590.5 -210zM846.5 360q146.5 0 245 95.5t98.5 261t-98.5 261t-245 95.5t-245 -95.5t-98.5 -261
t98.5 -261t245 -95.5z" />
    <glyph glyph-name="otilde" unicode="&#xf5;" horiz-adv-x="1693" 
d="M997 1522q-72 0 -178 49.5t-157 49.5q-97 0 -106 -82h-128q-22 147 59 223t206 76q72 0 177 -49.5t157 -49.5q97 0 106 82h128q22 -147 -58.5 -223t-205.5 -76zM846.5 -48q-368.5 0 -590.5 210t-222 555t222 554.5t590.5 209.5t590.5 -209.5t222 -554.5t-222 -555
t-590.5 -210zM846.5 360q146.5 0 245 95.5t98.5 261t-98.5 261t-245 95.5t-245 -95.5t-98.5 -261t98.5 -261t245 -95.5z" />
    <glyph glyph-name="odieresis" unicode="&#xf6;" horiz-adv-x="1693" 
d="M585.5 1531q-71.5 0 -122 47t-50.5 117t50.5 117t122 47t122 -47t50.5 -117t-50.5 -117t-122 -47zM1106 1531q-72 0 -122 47t-50 117t50 117t122 47t122 -47t50 -117t-50 -117t-122 -47zM846.5 -48q-368.5 0 -590.5 210t-222 555t222 554.5t590.5 209.5t590.5 -209.5
t222 -554.5t-222 -555t-590.5 -210zM846.5 360q146.5 0 245 95.5t98.5 261t-98.5 261t-245 95.5t-245 -95.5t-98.5 -261t98.5 -261t245 -95.5z" />
    <glyph glyph-name="divide" unicode="&#xf7;" horiz-adv-x="1242" 
d="M616 992q-84 0 -143.5 59.5t-59.5 139.5q0 82 59.5 142t143.5 60t143.5 -60t59.5 -142q0 -80 -59.5 -139.5t-143.5 -59.5zM85 555v326h1072v-326h-1072zM616 32q-84 0 -143.5 60t-59.5 140q0 82 59.5 141.5t143.5 59.5t143.5 -59.5t59.5 -141.5q0 -80 -59.5 -140
t-143.5 -60z" />
    <glyph glyph-name="oslash" unicode="&#xf8;" horiz-adv-x="1693" 
d="M1287 1381q177 -96 274.5 -267.5t97.5 -396.5q0 -345 -222 -555t-590 -210q-109 0 -210 21l-28 -60h-285l69 148q-171 97 -265 266.5t-94 389.5q0 345 222 554.5t591 209.5q108 0 192 -17l28 58h285zM503 717q0 -143 81 -241l276 597h-13q-147 0 -245.5 -95t-98.5 -261z
M847 360q147 0 245 95.5t98 261.5q0 157 -93 254l-281 -609q11 -2 31 -2z" />
    <glyph glyph-name="ugrave" unicode="&#xf9;" horiz-adv-x="1604" 
d="M1015 1519h-418l-123 299h419zM802 -48q-374 0 -558 164t-184 509v809h476v-797q0 -288 266 -289q270 0 270 289v797h473v-806q0 -346 -184.5 -511t-558.5 -165z" />
    <glyph glyph-name="uacute" unicode="&#xfa;" horiz-adv-x="1604" 
d="M591 1519l122 299h419l-123 -299h-418zM802 -48q-374 0 -558 164t-184 509v809h476v-797q0 -288 266 -289q270 0 270 289v797h473v-806q0 -346 -184.5 -511t-558.5 -165z" />
    <glyph glyph-name="ucircumflex" unicode="&#xfb;" horiz-adv-x="1604" 
d="M292 1519l225 299h570l225 -299h-390l-72 84h-96l-71 -84h-391zM802 -48q-374 0 -558 164t-184 509v809h476v-797q0 -288 266 -289q270 0 270 289v797h473v-806q0 -346 -184.5 -511t-558.5 -165z" />
    <glyph glyph-name="udieresis" unicode="&#xfc;" horiz-adv-x="1604" 
d="M541 1524q-72 0 -122 47t-50 117t50 117t122 47t122 -47t50 -117t-50 -117t-122 -47zM1061.5 1524q-71.5 0 -122 47t-50.5 117t50.5 117t122 47t122 -47t50.5 -117t-50.5 -117t-122 -47zM802 -48q-374 0 -558 164t-184 509v809h476v-797q0 -288 266 -289q270 0 270 289
v797h473v-806q0 -346 -184.5 -511t-558.5 -165z" />
    <glyph glyph-name="yacute" unicode="&#xfd;" horiz-adv-x="1645" 
d="M1152 1818l-123 -299h-418l123 299h418zM1645 1434l-587 -989v-445h-473v447l-585 987h497l307 -540h37l308 540h496z" />
    <glyph glyph-name="thorn" unicode="&#xfe;" horiz-adv-x="1505" 
d="M782 1270q328 0 504.5 -136.5t176.5 -416.5t-177 -416.5t-503 -136.5h-251v-164h-472v1434h472v-164h250zM792 556q195 0 194 161q0 80 -52 120t-140 40h-262v-321h260z" />
    <glyph glyph-name="ydieresis" unicode="&#xff;" horiz-adv-x="1645" 
d="M561.5 1524q-71.5 0 -122 47t-50.5 117t50.5 117t122 47t122 -47t50.5 -117t-50.5 -117t-122 -47zM1082 1524q-72 0 -122 47t-50 117t50 117t122 47t122 -47t50 -117t-50 -117t-122 -47zM1645 1434l-587 -989v-445h-473v447l-585 987h497l307 -540h37l308 540h496z" />
    <glyph glyph-name="Amacron" unicode="&#x100;" 
d="M1260 1869v-343h-786v343h786zM1237 0l-63 189h-614l-63 -189h-488l527 1434h662l527 -1434h-488zM676 539h382l-150 451h-82z" />
    <glyph glyph-name="amacron" unicode="&#x101;" 
d="M1260 1869v-343h-786v343h786zM1237 0l-63 189h-614l-63 -189h-488l527 1434h662l527 -1434h-488zM676 539h382l-150 451h-82z" />
    <glyph glyph-name="Abreve" unicode="&#x102;" 
d="M867 1519q-225 0 -312 65.5t-84 233.5h283q-2 -53 28 -80.5t85 -27.5t84.5 27.5t28.5 80.5h283q3 -167 -84 -233t-312 -66zM1237 0l-63 189h-614l-63 -189h-488l527 1434h662l527 -1434h-488zM676 539h382l-150 451h-82z" />
    <glyph glyph-name="abreve" unicode="&#x103;" 
d="M867 1519q-225 0 -312 65.5t-84 233.5h283q-2 -53 28 -80.5t85 -27.5t84.5 27.5t28.5 80.5h283q3 -167 -84 -233t-312 -66zM1237 0l-63 189h-614l-63 -189h-488l527 1434h662l527 -1434h-488zM676 539h382l-150 451h-82z" />
    <glyph glyph-name="Aogonek" unicode="&#x104;" 
d="M1237 0q-73 0 -103 -25.5t-30 -59.5q0 -75 87 -74v-256q-67 0 -130.5 12t-127.5 39.5t-103.5 82t-39.5 129.5q0 254 408 270l-24 71h-614l-63 -189h-488l527 1434h662l527 -1434h-488zM676 539h382l-150 451h-82z" />
    <glyph glyph-name="aogonek" unicode="&#x105;" 
d="M1237 0q-73 0 -103 -25.5t-30 -59.5q0 -75 87 -74v-256q-67 0 -130.5 12t-127.5 39.5t-103.5 82t-39.5 129.5q0 254 408 270l-24 71h-614l-63 -189h-488l527 1434h662l527 -1434h-488zM676 539h382l-150 451h-82z" />
    <glyph glyph-name="Cacute" unicode="&#x106;" horiz-adv-x="1629" 
d="M631 1519l123 299h418l-122 -299h-419zM840 -48q-362 0 -584 210t-222 555t222 554.5t584 209.5q109 0 208 -19.5t194.5 -66.5t167 -117.5t122 -182.5t64.5 -252h-451q-58 230 -305 230q-143 0 -240 -98.5t-97 -257.5t96.5 -258t240.5 -99q247 0 305 234h451
q-17 -176 -87 -305t-177.5 -200.5t-229.5 -104t-262 -32.5z" />
    <glyph glyph-name="cacute" unicode="&#x107;" horiz-adv-x="1629" 
d="M631 1519l123 299h418l-122 -299h-419zM840 -48q-362 0 -584 210t-222 555t222 554.5t584 209.5q109 0 208 -19.5t194.5 -66.5t167 -117.5t122 -182.5t64.5 -252h-451q-58 230 -305 230q-143 0 -240 -98.5t-97 -257.5t96.5 -258t240.5 -99q247 0 305 234h451
q-17 -176 -87 -305t-177.5 -200.5t-229.5 -104t-262 -32.5z" />
    <glyph glyph-name="Cdotaccent" unicode="&#x10a;" horiz-adv-x="1629" 
d="M843 1524q-72 0 -122 47t-50 117t50 117t122 47t122 -47t50 -117t-50 -117t-122 -47zM840 -48q-362 0 -584 210t-222 555t222 554.5t584 209.5q109 0 208 -19.5t194.5 -66.5t167 -117.5t122 -182.5t64.5 -252h-451q-58 230 -305 230q-143 0 -240 -98.5t-97 -257.5
t96.5 -258t240.5 -99q247 0 305 234h451q-17 -176 -87 -305t-177.5 -200.5t-229.5 -104t-262 -32.5z" />
    <glyph glyph-name="cdotaccent" unicode="&#x10b;" horiz-adv-x="1629" 
d="M843 1524q-72 0 -122 47t-50 117t50 117t122 47t122 -47t50 -117t-50 -117t-122 -47zM840 -48q-362 0 -584 210t-222 555t222 554.5t584 209.5q109 0 208 -19.5t194.5 -66.5t167 -117.5t122 -182.5t64.5 -252h-451q-58 230 -305 230q-143 0 -240 -98.5t-97 -257.5
t96.5 -258t240.5 -99q247 0 305 234h451q-17 -176 -87 -305t-177.5 -200.5t-229.5 -104t-262 -32.5z" />
    <glyph glyph-name="Ccaron" unicode="&#x10c;" horiz-adv-x="1629" 
d="M840 360q247 0 305 234h451q-17 -176 -87 -305t-177.5 -200.5t-229.5 -104t-262 -32.5q-362 0 -584 210t-222 555q0 300 171.5 500.5t463.5 250.5h-108l-225 298h391l72 -83h95l72 83h391l-225 -298h-118q237 -38 395.5 -190t186.5 -435h-451q-58 230 -305 230
q-143 0 -240 -98.5t-97 -257.5t97 -258t240 -99z" />
    <glyph glyph-name="ccaron" unicode="&#x10d;" horiz-adv-x="1629" 
d="M840 360q247 0 305 234h451q-17 -176 -87 -305t-177.5 -200.5t-229.5 -104t-262 -32.5q-362 0 -584 210t-222 555q0 300 171.5 500.5t463.5 250.5h-108l-225 298h391l72 -83h95l72 83h391l-225 -298h-118q237 -38 395.5 -190t186.5 -435h-451q-58 230 -305 230
q-143 0 -240 -98.5t-97 -257.5t97 -258t240 -99z" />
    <glyph glyph-name="Dcaron" unicode="&#x10e;" horiz-adv-x="1611" 
d="M1080 1468h-570l-225 298h391l72 -83h95l72 83h391zM780 1434q213 0 368.5 -53t246 -152t132 -225.5t41.5 -287t-41.5 -286.5t-132 -225t-246 -152t-368.5 -53h-720v1434h720zM780 396q145 0 229.5 78.5t84.5 242.5q0 166 -83.5 243.5t-230.5 77.5h-246v-642h246z" />
    <glyph glyph-name="dcaron" unicode="&#x10f;" horiz-adv-x="1611" 
d="M1080 1468h-570l-225 298h391l72 -83h95l72 83h391zM780 1434q213 0 368.5 -53t246 -152t132 -225.5t41.5 -287t-41.5 -286.5t-132 -225t-246 -152t-368.5 -53h-720v1434h720zM780 396q145 0 229.5 78.5t84.5 242.5q0 166 -83.5 243.5t-230.5 77.5h-246v-642h246z" />
    <glyph glyph-name="Dcroat" unicode="&#x110;" horiz-adv-x="1710" 
d="M879 1434q213 0 368.5 -53t246 -152t132 -225.5t41.5 -287t-41.5 -286.5t-132 -225t-246 -152t-368.5 -53h-720v541h-150v343h150v550h720zM879 396q145 0 229.5 78.5t84.5 242.5q0 166 -83.5 243.5t-230.5 77.5h-246v-154h241v-343h-241v-145h246z" />
    <glyph glyph-name="dcroat" unicode="&#x111;" horiz-adv-x="1710" 
d="M879 1434q213 0 368.5 -53t246 -152t132 -225.5t41.5 -287t-41.5 -286.5t-132 -225t-246 -152t-368.5 -53h-720v541h-150v343h150v550h720zM879 396q145 0 229.5 78.5t84.5 242.5q0 166 -83.5 243.5t-230.5 77.5h-246v-154h241v-343h-241v-145h246z" />
    <glyph glyph-name="Emacron" unicode="&#x112;" horiz-adv-x="1411" 
d="M300 1526v343h785v-343h-785zM60 0v1434h1292v-379h-820v-183h789v-311h-789v-182h820v-379h-1292z" />
    <glyph glyph-name="emacron" unicode="&#x113;" horiz-adv-x="1411" 
d="M300 1526v343h785v-343h-785zM60 0v1434h1292v-379h-820v-183h789v-311h-789v-182h820v-379h-1292z" />
    <glyph glyph-name="Edotaccent" unicode="&#x116;" horiz-adv-x="1411" 
d="M693 1524q-72 0 -122 47t-50 117t50 117t122 47t122 -47t50 -117t-50 -117t-122 -47zM60 0v1434h1292v-379h-820v-183h789v-311h-789v-182h820v-379h-1292z" />
    <glyph glyph-name="edotaccent" unicode="&#x117;" horiz-adv-x="1411" 
d="M693 1524q-72 0 -122 47t-50 117t50 117t122 47t122 -47t50 -117t-50 -117t-122 -47zM60 0v1434h1292v-379h-820v-183h789v-311h-789v-182h820v-379h-1292z" />
    <glyph glyph-name="Eogonek" unicode="&#x118;" horiz-adv-x="1411" 
d="M1352 1055h-820v-183h789v-311h-789v-182h820v-379q-73 0 -103 -25.5t-30 -59.5q0 -75 87 -74v-256q-67 0 -131 12t-128 39.5t-103 82t-39 129.5q0 92 54 152h-899v1434h1292v-379z" />
    <glyph glyph-name="eogonek" unicode="&#x119;" horiz-adv-x="1411" 
d="M1352 1055h-820v-183h789v-311h-789v-182h820v-379q-73 0 -103 -25.5t-30 -59.5q0 -75 87 -74v-256q-67 0 -131 12t-128 39.5t-103 82t-39 129.5q0 92 54 152h-899v1434h1292v-379z" />
    <glyph glyph-name="Ecaron" unicode="&#x11a;" horiz-adv-x="1411" 
d="M186 1766h391l72 -83h95l72 83h391l-226 -298h-570zM60 0v1434h1292v-379h-820v-183h789v-311h-789v-182h820v-379h-1292z" />
    <glyph glyph-name="ecaron" unicode="&#x11b;" horiz-adv-x="1411" 
d="M186 1766h391l72 -83h95l72 83h391l-226 -298h-570zM60 0v1434h1292v-379h-820v-183h789v-311h-789v-182h820v-379h-1292z" />
    <glyph glyph-name="Gbreve" unicode="&#x11e;" horiz-adv-x="1670" 
d="M843 1519q-225 0 -312 65.5t-84 233.5h283q-2 -53 28 -80.5t85 -27.5t84.5 27.5t28.5 80.5h283q3 -167 -84 -233t-312 -66zM1603 792v-792h-253l-7 189q-79 -108 -214.5 -172.5t-316.5 -64.5q-335 0 -556.5 212.5t-221.5 552.5q0 345 223.5 554.5t595.5 209.5
q131 0 252.5 -32t225 -96t174 -172.5t91.5 -248.5h-470q-24 58 -93.5 99.5t-168.5 41.5q-160 0 -260.5 -97t-100.5 -259q0 -160 99 -258.5t248 -98.5q34 0 70.5 6t84.5 23t86.5 58t55.5 99h-316v246h772z" />
    <glyph glyph-name="gbreve" unicode="&#x11f;" horiz-adv-x="1670" 
d="M843 1519q-225 0 -312 65.5t-84 233.5h283q-2 -53 28 -80.5t85 -27.5t84.5 27.5t28.5 80.5h283q3 -167 -84 -233t-312 -66zM1603 792v-792h-253l-7 189q-79 -108 -214.5 -172.5t-316.5 -64.5q-335 0 -556.5 212.5t-221.5 552.5q0 345 223.5 554.5t595.5 209.5
q131 0 252.5 -32t225 -96t174 -172.5t91.5 -248.5h-470q-24 58 -93.5 99.5t-168.5 41.5q-160 0 -260.5 -97t-100.5 -259q0 -160 99 -258.5t248 -98.5q34 0 70.5 6t84.5 23t86.5 58t55.5 99h-316v246h772z" />
    <glyph glyph-name="Gdotaccent" unicode="&#x120;" horiz-adv-x="1670" 
d="M843 1524q-72 0 -122 47t-50 117t50 117t122 47t122 -47t50 -117t-50 -117t-122 -47zM1603 792v-792h-253l-7 189q-79 -108 -214.5 -172.5t-316.5 -64.5q-335 0 -556.5 212.5t-221.5 552.5q0 345 223.5 554.5t595.5 209.5q131 0 252.5 -32t225 -96t174 -172.5
t91.5 -248.5h-470q-24 58 -93.5 99.5t-168.5 41.5q-160 0 -260.5 -97t-100.5 -259q0 -160 99 -258.5t248 -98.5q34 0 70.5 6t84.5 23t86.5 58t55.5 99h-316v246h772z" />
    <glyph glyph-name="gdotaccent" unicode="&#x121;" horiz-adv-x="1670" 
d="M843 1524q-72 0 -122 47t-50 117t50 117t122 47t122 -47t50 -117t-50 -117t-122 -47zM1603 792v-792h-253l-7 189q-79 -108 -214.5 -172.5t-316.5 -64.5q-335 0 -556.5 212.5t-221.5 552.5q0 345 223.5 554.5t595.5 209.5q131 0 252.5 -32t225 -96t174 -172.5
t91.5 -248.5h-470q-24 58 -93.5 99.5t-168.5 41.5q-160 0 -260.5 -97t-100.5 -259q0 -160 99 -258.5t248 -98.5q34 0 70.5 6t84.5 23t86.5 58t55.5 99h-316v246h772z" />
    <glyph glyph-name="Gcommaaccent" unicode="&#x122;" horiz-adv-x="1670" 
d="M1603 792v-792h-253l-7 189q-79 -108 -214.5 -172.5t-316.5 -64.5q-335 0 -556.5 212.5t-221.5 552.5q0 345 223.5 554.5t595.5 209.5q131 0 252.5 -32t225 -96t174 -172.5t91.5 -248.5h-470q-24 58 -93.5 99.5t-168.5 41.5q-160 0 -260.5 -97t-100.5 -259
q0 -160 99 -258.5t248 -98.5q34 0 70.5 6t84.5 23t86.5 58t55.5 99h-316v246h772zM606 -452v339h479v-75q0 -232 -27 -392.5t-61 -221.5h-249q22 162 18 350h-160z" />
    <glyph glyph-name="gcommaaccent" unicode="&#x123;" horiz-adv-x="1670" 
d="M1603 792v-792h-253l-7 189q-79 -108 -214.5 -172.5t-316.5 -64.5q-335 0 -556.5 212.5t-221.5 552.5q0 345 223.5 554.5t595.5 209.5q131 0 252.5 -32t225 -96t174 -172.5t91.5 -248.5h-470q-24 58 -93.5 99.5t-168.5 41.5q-160 0 -260.5 -97t-100.5 -259
q0 -160 99 -258.5t248 -98.5q34 0 70.5 6t84.5 23t86.5 58t55.5 99h-316v246h772zM606 -452v339h479v-75q0 -232 -27 -392.5t-61 -221.5h-249q22 162 18 350h-160z" />
    <glyph glyph-name="Hbar" unicode="&#x126;" horiz-adv-x="1621" 
d="M1089 1434h473v-1434h-473v509h-557v-509h-472v1434h472v-122h550v-324h-550v-90h557v536z" />
    <glyph glyph-name="hbar" unicode="&#x127;" horiz-adv-x="1621" 
d="M1089 1434h473v-1434h-473v509h-557v-509h-472v1434h472v-122h550v-324h-550v-90h557v536z" />
    <glyph glyph-name="Imacron" unicode="&#x12a;" horiz-adv-x="592" 
d="M-97 1526v343h785v-343h-785zM60 0v1434h472v-1434h-472z" />
    <glyph glyph-name="imacron" unicode="&#x12b;" horiz-adv-x="592" 
d="M-97 1526v343h785v-343h-785zM60 0v1434h472v-1434h-472z" />
    <glyph glyph-name="Iogonek" unicode="&#x12e;" horiz-adv-x="592" 
d="M60 1434h472v-1434q-73 0 -103 -25.5t-30 -59.5q0 -75 87 -74v-256q-67 0 -130.5 12t-127.5 39.5t-103.5 82t-39.5 129.5q0 92 55 152h-80v1434z" />
    <glyph glyph-name="iogonek" unicode="&#x12f;" horiz-adv-x="592" 
d="M60 1434h472v-1434q-73 0 -103 -25.5t-30 -59.5q0 -75 87 -74v-256q-67 0 -130.5 12t-127.5 39.5t-103.5 82t-39.5 129.5q0 92 55 152h-80v1434z" />
    <glyph glyph-name="Idotaccent" unicode="&#x130;" horiz-adv-x="592" 
d="M295.5 1524q-71.5 0 -122 47t-50.5 117t50.5 117t122 47t122 -47t50.5 -117t-50.5 -117t-122 -47zM60 0v1434h472v-1434h-472z" />
    <glyph glyph-name="dotlessi" unicode="&#x131;" horiz-adv-x="592" 
d="M60 0v1434h472v-1434h-472z" />
    <glyph glyph-name="IJ" unicode="&#x132;" horiz-adv-x="2003" 
d="M60 0v1434h472v-1434h-472zM1275 -48q-118 0 -212.5 17t-178.5 60t-139.5 111t-86 174t-28.5 246h471q-2 -207 184 -207t186 248v833h473v-809q0 -365 -169 -519t-500 -154z" />
    <glyph glyph-name="Kcommaaccent" unicode="&#x136;" horiz-adv-x="1614" 
d="M1022 795l601 -795h-483l-382 510h-31l-196 -210v-300h-471v1434h471v-569h30l518 569h525zM582 -452v339h480v-75q0 -232 -27.5 -392.5t-61.5 -221.5h-249q22 162 18 350h-160z" />
    <glyph glyph-name="kcommaaccent" unicode="&#x137;" horiz-adv-x="1614" 
d="M1022 795l601 -795h-483l-382 510h-31l-196 -210v-300h-471v1434h471v-569h30l518 569h525zM582 -452v339h480v-75q0 -232 -27.5 -392.5t-61.5 -221.5h-249q22 162 18 350h-160z" />
    <glyph glyph-name="Lacute" unicode="&#x139;" horiz-adv-x="1356" 
d="M60 1502l123 299h418l-123 -299h-418zM60 0v1434h472v-1040h765v-394h-1237z" />
    <glyph glyph-name="lacute" unicode="&#x13a;" horiz-adv-x="1356" 
d="M60 1502l123 299h418l-123 -299h-418zM60 0v1434h472v-1040h765v-394h-1237z" />
    <glyph glyph-name="Lcommaaccent" unicode="&#x13b;" horiz-adv-x="1356" 
d="M60 0v1434h472v-1040h765v-394h-1237zM582 -802q22 162 19 350h-161v339h480v-75q0 -232 -27.5 -392.5t-61.5 -221.5h-249z" />
    <glyph glyph-name="lcommaaccent" unicode="&#x13c;" horiz-adv-x="1356" 
d="M60 0v1434h472v-1040h765v-394h-1237zM582 -802q22 162 19 350h-161v339h480v-75q0 -232 -27.5 -392.5t-61.5 -221.5h-249z" />
    <glyph glyph-name="Lcaron" unicode="&#x13d;" horiz-adv-x="1356" 
d="M60 0v1434h472v-1040h765v-394h-1237zM853 633q26 179 23 406h-187v395h557v-87q0 -268 -31.5 -454t-71.5 -260h-290z" />
    <glyph glyph-name="lcaron" unicode="&#x13e;" horiz-adv-x="1356" 
d="M60 0v1434h472v-1040h765v-394h-1237zM853 633q26 179 23 406h-187v395h557v-87q0 -268 -31.5 -454t-71.5 -260h-290z" />
    <glyph glyph-name="Ldot" unicode="&#x13f;" horiz-adv-x="1356" 
d="M60 0v1434h472v-1040h765v-394h-1237zM942.5 669q-95.5 0 -165.5 69t-70 163t70 163t165.5 69t165.5 -69t70 -163t-70 -163t-165.5 -69z" />
    <glyph glyph-name="Lslash" unicode="&#x141;" horiz-adv-x="1418" 
d="M594 394h765v-394h-1238v357l-121 -92v337l121 93v739h473v-378l239 183v-338l-239 -182v-325z" />
    <glyph glyph-name="lslash" unicode="&#x142;" horiz-adv-x="1418" 
d="M594 394h765v-394h-1238v357l-121 -92v337l121 93v739h473v-378l239 183v-338l-239 -182v-325z" />
    <glyph glyph-name="Nacute" unicode="&#x143;" horiz-adv-x="1641" 
d="M609 1519l123 299h418l-123 -299h-418zM60 0v1434h542l477 -775h42v775h461v-1434h-531l-488 775h-42v-775h-461z" />
    <glyph glyph-name="nacute" unicode="&#x144;" horiz-adv-x="1641" 
d="M609 1519l123 299h418l-123 -299h-418zM60 0v1434h542l477 -775h42v775h461v-1434h-531l-488 775h-42v-775h-461z" />
    <glyph glyph-name="Ncommaaccent" unicode="&#x145;" horiz-adv-x="1641" 
d="M60 0v1434h542l477 -775h42v775h461v-1434h-531l-488 775h-42v-775h-461zM725 -802q22 162 19 350h-160v339h479v-75q0 -232 -27 -392.5t-61 -221.5h-250z" />
    <glyph glyph-name="ncommaaccent" unicode="&#x146;" horiz-adv-x="1641" 
d="M60 0v1434h542l477 -775h42v775h461v-1434h-531l-488 775h-42v-775h-461zM725 -802q22 162 19 350h-160v339h479v-75q0 -232 -27 -392.5t-61 -221.5h-250z" />
    <glyph glyph-name="Ncaron" unicode="&#x147;" horiz-adv-x="1641" 
d="M314 1766h391l72 -83h95l72 83h391l-226 -298h-570zM60 0v1434h542l477 -775h42v775h461v-1434h-531l-488 775h-42v-775h-461z" />
    <glyph glyph-name="ncaron" unicode="&#x148;" horiz-adv-x="1641" 
d="M314 1766h391l72 -83h95l72 83h391l-226 -298h-570zM60 0v1434h542l477 -775h42v775h461v-1434h-531l-488 775h-42v-775h-461z" />
    <glyph glyph-name="Eng" unicode="&#x14a;" horiz-adv-x="1641" 
d="M1121 1434h461v-1434q-2 -259 -171 -383t-481 -124l7 396h37q11 0 39 2.5t41.5 9.5t32.5 18t26.5 30.5t7.5 47.5v3h-70l-488 775h-42v-775h-461v1434h542l477 -775h42v775z" />
    <glyph glyph-name="eng" unicode="&#x14b;" horiz-adv-x="1641" 
d="M1121 1434h461v-1434q-2 -259 -171 -383t-481 -124l7 396h37q11 0 39 2.5t41.5 9.5t32.5 18t26.5 30.5t7.5 47.5v3h-70l-488 775h-42v-775h-461v1434h542l477 -775h42v775z" />
    <glyph glyph-name="Omacron" unicode="&#x14c;" horiz-adv-x="1693" 
d="M454 1533v343h785v-343h-785zM846.5 -48q-368.5 0 -590.5 210t-222 555t222 554.5t590.5 209.5t590.5 -209.5t222 -554.5t-222 -555t-590.5 -210zM846.5 360q146.5 0 245 95.5t98.5 261t-98.5 261t-245 95.5t-245 -95.5t-98.5 -261t98.5 -261t245 -95.5z" />
    <glyph glyph-name="omacron" unicode="&#x14d;" horiz-adv-x="1693" 
d="M454 1533v343h785v-343h-785zM846.5 -48q-368.5 0 -590.5 210t-222 555t222 554.5t590.5 209.5t590.5 -209.5t222 -554.5t-222 -555t-590.5 -210zM846.5 360q146.5 0 245 95.5t98.5 261t-98.5 261t-245 95.5t-245 -95.5t-98.5 -261t98.5 -261t245 -95.5z" />
    <glyph glyph-name="Ohungarumlaut" unicode="&#x150;" horiz-adv-x="1693" 
d="M352 1536l122 299h419l-123 -299h-418zM841 1536l123 299h418l-122 -299h-419zM846.5 -48q-368.5 0 -590.5 210t-222 555t222 554.5t590.5 209.5t590.5 -209.5t222 -554.5t-222 -555t-590.5 -210zM846.5 360q146.5 0 245 95.5t98.5 261t-98.5 261t-245 95.5t-245 -95.5
t-98.5 -261t98.5 -261t245 -95.5z" />
    <glyph glyph-name="ohungarumlaut" unicode="&#x151;" horiz-adv-x="1693" 
d="M352 1536l122 299h419l-123 -299h-418zM841 1536l123 299h418l-122 -299h-419zM846.5 -48q-368.5 0 -590.5 210t-222 555t222 554.5t590.5 209.5t590.5 -209.5t222 -554.5t-222 -555t-590.5 -210zM846.5 360q146.5 0 245 95.5t98.5 261t-98.5 261t-245 95.5t-245 -95.5
t-98.5 -261t98.5 -261t245 -95.5z" />
    <glyph glyph-name="OE" unicode="&#x152;" horiz-adv-x="2539" 
d="M2480 1055h-819v-183h788v-311h-788v-182h819v-379h-1292v10q-155 -58 -341 -58q-369 0 -591 210t-222 555t222 554.5t591 209.5q186 0 341 -58v11h1292v-379zM847 360q137 0 233 84.5t108 231.5v82q-12 147 -108.5 231t-232.5 84q-147 0 -245.5 -95.5t-98.5 -261
t98.5 -261t245.5 -95.5z" />
    <glyph glyph-name="oe" unicode="&#x153;" horiz-adv-x="2539" 
d="M2480 1055h-819v-183h788v-311h-788v-182h819v-379h-1292v10q-155 -58 -341 -58q-369 0 -591 210t-222 555t222 554.5t591 209.5q186 0 341 -58v11h1292v-379zM847 360q137 0 233 84.5t108 231.5v82q-12 147 -108.5 231t-232.5 84q-147 0 -245.5 -95.5t-98.5 -261
t98.5 -261t245.5 -95.5z" />
    <glyph glyph-name="Racute" unicode="&#x154;" horiz-adv-x="1583" 
d="M1106 1818l-123 -299h-418l123 299h418zM1550 0h-465l-194 370h-359v-370h-472v1434h821q621 0 621 -548q0 -268 -208 -415zM532 1041v-317h316q89 0 135 41t46 117.5t-46 117.5t-135 41h-316z" />
    <glyph glyph-name="racute" unicode="&#x155;" horiz-adv-x="1583" 
d="M1106 1818l-123 -299h-418l123 299h418zM1550 0h-465l-194 370h-359v-370h-472v1434h821q621 0 621 -548q0 -268 -208 -415zM532 1041v-317h316q89 0 135 41t46 117.5t-46 117.5t-135 41h-316z" />
    <glyph glyph-name="Rcommaaccent" unicode="&#x156;" horiz-adv-x="1583" 
d="M1294 471l256 -471h-465l-194 370h-359v-370h-472v1434h821q621 0 621 -548q0 -268 -208 -415zM532 1041v-317h316q89 0 135 41t46 117.5t-46 117.5t-135 41h-316zM539 -452v339h480v-75q0 -232 -27.5 -392.5t-61.5 -221.5h-249q22 162 19 350h-161z" />
    <glyph glyph-name="rcommaaccent" unicode="&#x157;" horiz-adv-x="1583" 
d="M1294 471l256 -471h-465l-194 370h-359v-370h-472v1434h821q621 0 621 -548q0 -268 -208 -415zM532 1041v-317h316q89 0 135 41t46 117.5t-46 117.5t-135 41h-316zM539 -452v339h480v-75q0 -232 -27.5 -392.5t-61.5 -221.5h-249q22 162 19 350h-161z" />
    <glyph glyph-name="Rcaron" unicode="&#x158;" horiz-adv-x="1583" 
d="M1065 1468h-570l-225 298h390l72 -83h96l71 83h391zM1550 0h-465l-194 370h-359v-370h-472v1434h821q621 0 621 -548q0 -268 -208 -415zM532 1041v-317h316q89 0 135 41t46 117.5t-46 117.5t-135 41h-316z" />
    <glyph glyph-name="rcaron" unicode="&#x159;" horiz-adv-x="1583" 
d="M1065 1468h-570l-225 298h390l72 -83h96l71 83h391zM1550 0h-465l-194 370h-359v-370h-472v1434h821q621 0 621 -548q0 -268 -208 -415zM532 1041v-317h316q89 0 135 41t46 117.5t-46 117.5t-135 41h-316z" />
    <glyph glyph-name="Sacute" unicode="&#x15a;" horiz-adv-x="1506" 
d="M546 1519l123 299h418l-123 -299h-418zM742 -48q-375 2 -550 126.5t-166 401.5h425q9 -157 291 -159q130 -2 197.5 30.5t67.5 85.5q0 90 -166 114l-184 29q-239 39 -321 67q-227 79 -268 278q-9 46 -8 99q0 217 175 337t511 120q130 0 231.5 -15t191 -52t147.5 -95.5
t89.5 -149t29.5 -212.5h-421q-27 155 -278 156q-222 0 -222 -113q0 -87 135 -107l151 -26l88 -14l92.5 -13t91 -16.5t90.5 -22.5t82 -29.5t77 -40t62.5 -52t50 -68.5t30.5 -86.5t12 -106.5q0 -468 -734 -466z" />
    <glyph glyph-name="sacute" unicode="&#x15b;" horiz-adv-x="1506" 
d="M546 1519l123 299h418l-123 -299h-418zM742 -48q-375 2 -550 126.5t-166 401.5h425q9 -157 291 -159q130 -2 197.5 30.5t67.5 85.5q0 90 -166 114l-184 29q-239 39 -321 67q-227 79 -268 278q-9 46 -8 99q0 217 175 337t511 120q130 0 231.5 -15t191 -52t147.5 -95.5
t89.5 -149t29.5 -212.5h-421q-27 155 -278 156q-222 0 -222 -113q0 -87 135 -107l151 -26l88 -14l92.5 -13t91 -16.5t90.5 -22.5t82 -29.5t77 -40t62.5 -52t50 -68.5t30.5 -86.5t12 -106.5q0 -468 -734 -466z" />
    <glyph glyph-name="Scedilla" unicode="&#x15e;" horiz-adv-x="1506" 
d="M1476 418q0 -447 -662 -464l-14 -12q80 -5 139 -55.5t59 -140.5q0 -131 -128.5 -185t-311.5 -17v180q68 -15 110 -13t61 10t19 18q0 12 -19 23t-61 15.5t-110 -13.5v113l101 77q-331 14 -486.5 140t-146.5 386h425q9 -157 291 -159q130 -2 197.5 30.5t67.5 85.5
q0 90 -166 114l-184 29q-239 39 -321 67q-227 79 -268 278q-9 46 -8 99q0 217 175 337t511 120q130 0 231.5 -15t191 -52t147.5 -95.5t89.5 -149t29.5 -212.5h-421q-27 155 -278 156q-222 0 -222 -113q0 -87 135 -107l151 -26l88 -14l92.5 -13t91 -16.5t90.5 -22.5t82 -29.5
t77 -40t62.5 -52t50 -68.5t30.5 -86.5t12 -106.5z" />
    <glyph glyph-name="scedilla" unicode="&#x15f;" horiz-adv-x="1506" 
d="M1476 418q0 -447 -662 -464l-14 -12q80 -5 139 -55.5t59 -140.5q0 -131 -128.5 -185t-311.5 -17v180q68 -15 110 -13t61 10t19 18q0 12 -19 23t-61 15.5t-110 -13.5v113l101 77q-331 14 -486.5 140t-146.5 386h425q9 -157 291 -159q130 -2 197.5 30.5t67.5 85.5
q0 90 -166 114l-184 29q-239 39 -321 67q-227 79 -268 278q-9 46 -8 99q0 217 175 337t511 120q130 0 231.5 -15t191 -52t147.5 -95.5t89.5 -149t29.5 -212.5h-421q-27 155 -278 156q-222 0 -222 -113q0 -87 135 -107l151 -26l88 -14l92.5 -13t91 -16.5t90.5 -22.5t82 -29.5
t77 -40t62.5 -52t50 -68.5t30.5 -86.5t12 -106.5z" />
    <glyph glyph-name="Scaron" unicode="&#x160;" horiz-adv-x="1506" 
d="M800 867l88 -14l92.5 -13t91 -16.5t90.5 -22.5t82 -29.5t77 -40t62.5 -52t50 -68.5t30.5 -86.5t12 -106.5q0 -468 -734 -466q-375 2 -550 126.5t-166 401.5h425q9 -157 291 -159q130 -2 197.5 30.5t67.5 85.5q0 90 -166 114l-184 29q-239 39 -321 67q-227 79 -268 278
q-9 46 -8 99q0 181 122 295.5t359 148.5h-65l-225 298h391l71 -83h96l72 83h390l-225 -298h-80q230 -32 352 -152.5t117 -358.5h-421q-27 155 -278 156q-222 0 -222 -113q0 -87 135 -107z" />
    <glyph glyph-name="scaron" unicode="&#x161;" horiz-adv-x="1506" 
d="M800 867l88 -14l92.5 -13t91 -16.5t90.5 -22.5t82 -29.5t77 -40t62.5 -52t50 -68.5t30.5 -86.5t12 -106.5q0 -468 -734 -466q-375 2 -550 126.5t-166 401.5h425q9 -157 291 -159q130 -2 197.5 30.5t67.5 85.5q0 90 -166 114l-184 29q-239 39 -321 67q-227 79 -268 278
q-9 46 -8 99q0 181 122 295.5t359 148.5h-65l-225 298h391l71 -83h96l72 83h390l-225 -298h-80q230 -32 352 -152.5t117 -358.5h-421q-27 155 -278 156q-222 0 -222 -113q0 -87 135 -107z" />
    <glyph glyph-name="Tcommaaccent" unicode="&#x162;" horiz-adv-x="1605" 
d="M1039 0h-116l-76 -58q80 -5 138.5 -55.5t58.5 -140.5q0 -131 -128.5 -185t-311.5 -17v180q68 -15 110 -13t61 10t19 18q0 12 -19 23t-61 15.5t-110 -13.5v113l161 123h-198v1039h-516v395h1504v-395h-516v-1039z" />
    <glyph glyph-name="tcommaaccent" unicode="&#x163;" horiz-adv-x="1605" 
d="M1039 0h-116l-76 -58q80 -5 138.5 -55.5t58.5 -140.5q0 -131 -128.5 -185t-311.5 -17v180q68 -15 110 -13t61 10t19 18q0 12 -19 23t-61 15.5t-110 -13.5v113l161 123h-198v1039h-516v395h1504v-395h-516v-1039z" />
    <glyph glyph-name="Tcaron" unicode="&#x164;" horiz-adv-x="1605" 
d="M1092 1468h-570l-225 298h391l71 -83h96l72 83h391zM1555 1434v-395h-516v-1039h-472v1039h-516v395h1504z" />
    <glyph glyph-name="tcaron" unicode="&#x165;" horiz-adv-x="1605" 
d="M1092 1468h-570l-225 298h391l71 -83h96l72 83h391zM1555 1434v-395h-516v-1039h-472v1039h-516v395h1504z" />
    <glyph glyph-name="Tbar" unicode="&#x166;" horiz-adv-x="1605" 
d="M1555 1039h-516v-225h376v-343h-376v-471h-472v471h-371v343h371v225h-516v395h1504v-395z" />
    <glyph glyph-name="tbar" unicode="&#x167;" horiz-adv-x="1605" 
d="M1555 1039h-516v-225h376v-343h-376v-471h-472v471h-371v343h371v225h-516v395h1504v-395z" />
    <glyph glyph-name="Umacron" unicode="&#x16a;" horiz-adv-x="1604" 
d="M410 1526v343h785v-343h-785zM802 -48q-374 0 -558 164t-184 509v809h476v-797q0 -288 266 -289q270 0 270 289v797h473v-806q0 -346 -184.5 -511t-558.5 -165z" />
    <glyph glyph-name="umacron" unicode="&#x16b;" horiz-adv-x="1604" 
d="M410 1526v343h785v-343h-785zM802 -48q-374 0 -558 164t-184 509v809h476v-797q0 -288 266 -289q270 0 270 289v797h473v-806q0 -346 -184.5 -511t-558.5 -165z" />
    <glyph glyph-name="Ubreve" unicode="&#x16c;" horiz-adv-x="1604" 
d="M802 1519q-225 0 -312 65.5t-84 233.5h283q-2 -53 28.5 -80.5t85 -27.5t84 27.5t28.5 80.5h283q3 -167 -84 -233t-312 -66zM802 -48q-374 0 -558 164t-184 509v809h476v-797q0 -288 266 -289q270 0 270 289v797h473v-806q0 -346 -184.5 -511t-558.5 -165z" />
    <glyph glyph-name="ubreve" unicode="&#x16d;" horiz-adv-x="1604" 
d="M802 1519q-225 0 -312 65.5t-84 233.5h283q-2 -53 28.5 -80.5t85 -27.5t84 27.5t28.5 80.5h283q3 -167 -84 -233t-312 -66zM802 -48q-374 0 -558 164t-184 509v809h476v-797q0 -288 266 -289q270 0 270 289v797h473v-806q0 -346 -184.5 -511t-558.5 -165z" />
    <glyph glyph-name="Uring" unicode="&#x16e;" horiz-adv-x="1604" 
d="M802.5 1408q-102.5 0 -173.5 71t-71 170q0 102 71 173t173.5 71t171.5 -71t69 -173q0 -99 -69 -170t-171.5 -71zM802 1601q24 0 38.5 13.5t12.5 37.5q-5 51 -51 51q-24 0 -37.5 -13.5t-13.5 -37.5q0 -51 51 -51zM802 -48q-374 0 -558 164t-184 509v809h476v-797
q0 -288 266 -289q270 0 270 289v797h473v-806q0 -346 -184.5 -511t-558.5 -165z" />
    <glyph glyph-name="uring" unicode="&#x16f;" horiz-adv-x="1604" 
d="M802.5 1408q-102.5 0 -173.5 71t-71 170q0 102 71 173t173.5 71t171.5 -71t69 -173q0 -99 -69 -170t-171.5 -71zM802 1601q24 0 38.5 13.5t12.5 37.5q-5 51 -51 51q-24 0 -37.5 -13.5t-13.5 -37.5q0 -51 51 -51zM802 -48q-374 0 -558 164t-184 509v809h476v-797
q0 -288 266 -289q270 0 270 289v797h473v-806q0 -346 -184.5 -511t-558.5 -165z" />
    <glyph glyph-name="Uhungarumlaut" unicode="&#x170;" horiz-adv-x="1604" 
d="M307 1529l123 299h418l-123 -299h-418zM797 1529l123 299h418l-123 -299h-418zM802 -48q-374 0 -558 164t-184 509v809h476v-797q0 -288 266 -289q270 0 270 289v797h473v-806q0 -346 -184.5 -511t-558.5 -165z" />
    <glyph glyph-name="uhungarumlaut" unicode="&#x171;" horiz-adv-x="1604" 
d="M307 1529l123 299h418l-123 -299h-418zM797 1529l123 299h418l-123 -299h-418zM802 -48q-374 0 -558 164t-184 509v809h476v-797q0 -288 266 -289q270 0 270 289v797h473v-806q0 -346 -184.5 -511t-558.5 -165z" />
    <glyph glyph-name="Uogonek" unicode="&#x172;" horiz-adv-x="1604" 
d="M1072 1434h473v-806q0 -300 -139.5 -464t-420.5 -202q-166 -14 -166 -64q0 -7 2.5 -14t9.5 -18t26.5 -18t48.5 -7v-256q-67 0 -130.5 12t-127.5 38.5t-103.5 80.5t-39.5 127q0 82 51 130q-497 97 -496 652v809h476v-797q0 -288 266 -289q270 0 270 289v797z" />
    <glyph glyph-name="uogonek" unicode="&#x173;" horiz-adv-x="1604" 
d="M1072 1434h473v-806q0 -300 -139.5 -464t-420.5 -202q-166 -14 -166 -64q0 -7 2.5 -14t9.5 -18t26.5 -18t48.5 -7v-256q-67 0 -130.5 12t-127.5 38.5t-103.5 80.5t-39.5 127q0 82 51 130q-497 97 -496 652v809h476v-797q0 -288 266 -289q270 0 270 289v797z" />
    <glyph glyph-name="Wcircumflex" unicode="&#x174;" horiz-adv-x="2201" 
d="M592 1519l225 299h571l225 -299h-391l-72 84h-95l-72 -84h-391zM312 0l-278 1434h480l153 -929h41l205 929h376l204 -929h41l154 929h479l-278 -1434h-638l-130 689h-41l-129 -689h-639z" />
    <glyph glyph-name="wcircumflex" unicode="&#x175;" horiz-adv-x="2201" 
d="M592 1519l225 299h571l225 -299h-391l-72 84h-95l-72 -84h-391zM312 0l-278 1434h480l153 -929h41l205 929h376l204 -929h41l154 929h479l-278 -1434h-638l-130 689h-41l-129 -689h-639z" />
    <glyph glyph-name="Ycircumflex" unicode="&#x176;" horiz-adv-x="1645" 
d="M775 1603l-72 -84h-391l226 299h570l225 -299h-391l-72 84h-95zM1645 1434l-587 -989v-445h-473v447l-585 987h497l307 -540h37l308 540h496z" />
    <glyph glyph-name="ycircumflex" unicode="&#x177;" horiz-adv-x="1645" 
d="M775 1603l-72 -84h-391l226 299h570l225 -299h-391l-72 84h-95zM1645 1434l-587 -989v-445h-473v447l-585 987h497l307 -540h37l308 540h496z" />
    <glyph glyph-name="Ydieresis" unicode="&#x178;" horiz-adv-x="1645" 
d="M561.5 1524q-71.5 0 -122 47t-50.5 117t50.5 117t122 47t122 -47t50.5 -117t-50.5 -117t-122 -47zM1082 1524q-72 0 -122 47t-50 117t50 117t122 47t122 -47t50 -117t-50 -117t-122 -47zM1645 1434l-587 -989v-445h-473v447l-585 987h497l307 -540h37l308 540h496z" />
    <glyph glyph-name="Zacute" unicode="&#x179;" horiz-adv-x="1416" 
d="M495 1519l123 299h418l-123 -299h-418zM34 0v381l734 623v35h-717v395h1331v-381l-744 -623v-36h734v-394h-1338z" />
    <glyph glyph-name="zacute" unicode="&#x17a;" horiz-adv-x="1416" 
d="M495 1519l123 299h418l-123 -299h-418zM34 0v381l734 623v35h-717v395h1331v-381l-744 -623v-36h734v-394h-1338z" />
    <glyph glyph-name="Zdotaccent" unicode="&#x17b;" horiz-adv-x="1416" 
d="M706.5 1524q-71.5 0 -122 47t-50.5 117t50.5 117t122 47t122 -47t50.5 -117t-50.5 -117t-122 -47zM34 0v381l734 623v35h-717v395h1331v-381l-744 -623v-36h734v-394h-1338z" />
    <glyph glyph-name="zdotaccent" unicode="&#x17c;" horiz-adv-x="1416" 
d="M706.5 1524q-71.5 0 -122 47t-50.5 117t50.5 117t122 47t122 -47t50.5 -117t-50.5 -117t-122 -47zM34 0v381l734 623v35h-717v395h1331v-381l-744 -623v-36h734v-394h-1338z" />
    <glyph glyph-name="Zcaron" unicode="&#x17d;" horiz-adv-x="1416" 
d="M200 1766h391l71 -83h96l71 83h391l-225 -298h-570zM34 0v381l734 623v35h-717v395h1331v-381l-744 -623v-36h734v-394h-1338z" />
    <glyph glyph-name="zcaron" unicode="&#x17e;" horiz-adv-x="1416" 
d="M200 1766h391l71 -83h96l71 83h391l-225 -298h-570zM34 0v381l734 623v35h-717v395h1331v-381l-744 -623v-36h734v-394h-1338z" />
    <glyph glyph-name="florin" unicode="&#x192;" horiz-adv-x="1309" 
d="M1036 1154q-72 0 -119 -35t-47 -109v-58h371v-360h-371v-179q0 -222 -135.5 -331t-348.5 -109q-207 0 -318 65v341q94 -36 205 -36q72 0 119 35t47 108v106h-371v360h371v132q0 222 135.5 331t348.5 109q207 0 318 -65v-341q-94 36 -205 36z" />
    <glyph glyph-name="uni01CD" unicode="&#x1cd;" 
d="M1155 1468h-570l-225 298h391l72 -83h95l72 83h391zM1237 0l-63 189h-614l-63 -189h-488l527 1434h662l527 -1434h-488zM676 539h382l-150 451h-82z" />
    <glyph glyph-name="uni01CE" unicode="&#x1ce;" 
d="M1155 1468h-570l-225 298h391l72 -83h95l72 83h391zM1237 0l-63 189h-614l-63 -189h-488l527 1434h662l527 -1434h-488zM676 539h382l-150 451h-82z" />
    <glyph glyph-name="uni01CF" unicode="&#x1cf;" horiz-adv-x="592" 
d="M-212 1766h391l72 -83h95l72 83h391l-225 -298h-570zM60 0v1434h472v-1434h-472z" />
    <glyph glyph-name="uni01D0" unicode="&#x1d0;" horiz-adv-x="592" 
d="M-212 1766h391l72 -83h95l72 83h391l-225 -298h-570zM60 0v1434h472v-1434h-472z" />
    <glyph glyph-name="uni01D1" unicode="&#x1d1;" horiz-adv-x="1693" 
d="M971 1475q317 -36 502.5 -240t185.5 -518q0 -345 -222 -555t-590.5 -210t-590.5 210t-222 555q0 314 185 518t503 240h-157l-225 298h390l72 -83h96l71 83h391l-225 -298h-164zM846.5 360q146.5 0 245 95.5t98.5 261t-98.5 261t-245 95.5t-245 -95.5t-98.5 -261
t98.5 -261t245 -95.5z" />
    <glyph glyph-name="uni01D2" unicode="&#x1d2;" horiz-adv-x="1693" 
d="M971 1475q317 -36 502.5 -240t185.5 -518q0 -345 -222 -555t-590.5 -210t-590.5 210t-222 555q0 314 185 518t503 240h-157l-225 298h390l72 -83h96l71 83h391l-225 -298h-164zM846.5 360q146.5 0 245 95.5t98.5 261t-98.5 261t-245 95.5t-245 -95.5t-98.5 -261
t98.5 -261t245 -95.5z" />
    <glyph glyph-name="uni01D3" unicode="&#x1d3;" horiz-adv-x="1604" 
d="M295 1766h391l72 -83h95l72 83h391l-225 -298h-570zM802 -48q-374 0 -558 164t-184 509v809h476v-797q0 -288 266 -289q270 0 270 289v797h473v-806q0 -346 -184.5 -511t-558.5 -165z" />
    <glyph glyph-name="uni01D4" unicode="&#x1d4;" horiz-adv-x="1604" 
d="M295 1766h391l72 -83h95l72 83h391l-225 -298h-570zM802 -48q-374 0 -558 164t-184 509v809h476v-797q0 -288 266 -289q270 0 270 289v797h473v-806q0 -346 -184.5 -511t-558.5 -165z" />
    <glyph glyph-name="uni01EA" unicode="&#x1ea;" horiz-adv-x="1693" 
d="M1659 717q0 -302 -173.5 -503.5t-470.5 -249.5q-17 -17 -17 -46q0 -75 87 -73v-256q-67 0 -130.5 12t-127.5 39t-103.5 81.5t-39.5 130.5q0 63 26 109q-311 39 -493.5 242t-182.5 514q0 345 222 554.5t590.5 209.5t590.5 -209.5t222 -554.5zM503 716.5
q0 -165.5 98.5 -261t245 -95.5t245 95.5t98.5 261t-98.5 261t-245 95.5t-245 -95.5t-98.5 -261z" />
    <glyph glyph-name="Scommaaccent" unicode="&#x218;" horiz-adv-x="1506" 
d="M742 -48q-375 2 -550 126.5t-166 401.5h425q9 -157 291 -159q130 -2 197.5 30.5t67.5 85.5q0 90 -166 114l-184 29q-239 39 -321 67q-227 79 -268 278q-9 46 -8 99q0 217 175 337t511 120q130 0 231.5 -15t191 -52t147.5 -95.5t89.5 -149t29.5 -212.5h-421
q-27 155 -278 156q-222 0 -222 -113q0 -87 135 -107l151 -26l88 -14l92.5 -13t91 -16.5t90.5 -22.5t82 -29.5t77 -40t62.5 -52t50 -68.5t30.5 -86.5t12 -106.5q0 -468 -734 -466zM662 -802q22 162 19 350h-160v339h479v-75q0 -232 -27.5 -392.5t-61.5 -221.5h-249z" />
    <glyph glyph-name="scommaaccent" unicode="&#x219;" horiz-adv-x="1506" 
d="M742 -48q-375 2 -550 126.5t-166 401.5h425q9 -157 291 -159q130 -2 197.5 30.5t67.5 85.5q0 90 -166 114l-184 29q-239 39 -321 67q-227 79 -268 278q-9 46 -8 99q0 217 175 337t511 120q130 0 231.5 -15t191 -52t147.5 -95.5t89.5 -149t29.5 -212.5h-421
q-27 155 -278 156q-222 0 -222 -113q0 -87 135 -107l151 -26l88 -14l92.5 -13t91 -16.5t90.5 -22.5t82 -29.5t77 -40t62.5 -52t50 -68.5t30.5 -86.5t12 -106.5q0 -468 -734 -466zM662 -802q22 162 19 350h-160v339h479v-75q0 -232 -27.5 -392.5t-61.5 -221.5h-249z" />
    <glyph glyph-name="uni021A" unicode="&#x21a;" horiz-adv-x="1605" 
d="M51 1434h1504v-395h-516v-1039h-472v1039h-516v395zM567 -452v339h479v-75q0 -232 -27 -392.5t-62 -221.5h-249q22 162 19 350h-160z" />
    <glyph glyph-name="uni021B" unicode="&#x21b;" horiz-adv-x="1605" 
d="M51 1434h1504v-395h-516v-1039h-472v1039h-516v395zM567 -452v339h479v-75q0 -232 -27 -392.5t-62 -221.5h-249q22 162 19 350h-160z" />
    <glyph glyph-name="circumflex" unicode="&#x2c6;" horiz-adv-x="1020" 
d="M0 1161l225 298h570l226 -298h-391l-72 83h-95l-72 -83h-391z" />
    <glyph glyph-name="caron" unicode="&#x2c7;" horiz-adv-x="1020" 
d="M0 1408h391l72 -84h95l72 84h391l-226 -299h-570z" />
    <glyph glyph-name="breve" unicode="&#x2d8;" horiz-adv-x="791" 
d="M396 1161q-225 0 -312 65.5t-84 232.5h283q-2 -53 28 -80t85 -27t84.5 27t28.5 80h283q3 -167 -84 -232.5t-312 -65.5z" />
    <glyph glyph-name="dotaccent" unicode="&#x2d9;" horiz-adv-x="344" 
d="M172.5 1166q-71.5 0 -122 47t-50.5 116.5t50.5 116.5t122 47t122 -47t50.5 -116.5t-50.5 -116.5t-122 -47z" />
    <glyph glyph-name="ring" unicode="&#x2da;" horiz-adv-x="484" 
d="M244 1050q-102 0 -173 70.5t-71 169.5q0 102 71 173t173 71t171.5 -70.5t69.5 -173.5q0 -99 -69.5 -169.5t-171.5 -70.5zM244 1242q24 0 38.5 14t12.5 38q-5 51 -51 51q-22 0 -36.5 -13.5t-14.5 -37.5q0 -52 51 -52z" />
    <glyph glyph-name="ogonek" unicode="&#x2db;" horiz-adv-x="447" 
d="M401 -415q-67 0 -130.5 12t-127.5 39.5t-103.5 82t-39.5 129.5q0 72 36 125.5t84.5 80t117.5 42t114.5 19t94.5 3.5v-118q-73 0 -103 -25.5t-30 -59.5q0 -75 87 -74v-256z" />
    <glyph glyph-name="tilde" unicode="&#x2dc;" horiz-adv-x="839" 
d="M572 1157q-73 0 -177.5 49.5t-157.5 49.5q-97 0 -106 -82h-128q-22 147 59 223t206 76q72 0 177 -49.5t157 -49.5q97 0 106 82h128q22 -147 -58.5 -223t-205.5 -76z" />
    <glyph glyph-name="hungarumlaut" unicode="&#x2dd;" horiz-adv-x="989" 
d="M0 1161l123 298h418l-123 -298h-418zM490 1161l123 298h418l-123 -298h-418z" />
    <glyph glyph-name="uni0326" unicode="&#x326;" horiz-adv-x="0" 
d="M-352 -802q22 162 19 350h-160v339h479v-75q0 -232 -27 -392.5t-61 -221.5h-250z" />
    <glyph glyph-name="Delta" unicode="&#x394;" 
d="M1198 1434l527 -1434h-1716l527 1434h662zM628 379h478l-213 611h-52z" />
    <glyph glyph-name="Omega" unicode="&#x3a9;" horiz-adv-x="1628" 
d="M34 0v364h196v44q-85 79 -133.5 195.5t-48.5 249.5q0 270 208 449t558 179t558 -179t208 -449q0 -133 -48.5 -250t-133.5 -195v-44h196v-364h-700v507q89 27 152 96t63 189q0 113 -80 197t-215 84t-215 -84t-80 -197q0 -119 63 -188.5t152 -96.5v-507h-700z" />
    <glyph glyph-name="mu" unicode="&#x3bc;" horiz-adv-x="1413" 
d="M881 1161h472v-1161h-464l-8 152h-45q-53 -80 -134.5 -123.5t-169.5 -52.5v-232h-472v1417h472v-640q0 -167 176 -168q79 0 126 44.5t47 104.5v659z" />
    <glyph glyph-name="pi" unicode="&#x3c0;" horiz-adv-x="1689" 
d="M1539 382q20 0 49.5 7t41.5 4v-323q-68 -84 -273 -84q-381 0 -381 378v462h-300v-826h-473v826h-143v335h1531v-335h-142v-369q0 -75 90 -75z" />
    <glyph glyph-name="Wgrave" unicode="&#x1e80;" horiz-adv-x="2201" 
d="M1316 1519h-418l-123 299h418zM312 0l-278 1434h480l153 -929h41l205 929h376l204 -929h41l154 929h479l-278 -1434h-638l-130 689h-41l-129 -689h-639z" />
    <glyph glyph-name="wgrave" unicode="&#x1e81;" horiz-adv-x="2201" 
d="M1316 1519h-418l-123 299h418zM312 0l-278 1434h480l153 -929h41l205 929h376l204 -929h41l154 929h479l-278 -1434h-638l-130 689h-41l-129 -689h-639z" />
    <glyph glyph-name="Wacute" unicode="&#x1e82;" horiz-adv-x="2201" 
d="M891 1519l123 299h418l-123 -299h-418zM312 0l-278 1434h480l153 -929h41l205 929h376l204 -929h41l154 929h479l-278 -1434h-638l-130 689h-41l-129 -689h-639z" />
    <glyph glyph-name="wacute" unicode="&#x1e83;" horiz-adv-x="2201" 
d="M891 1519l123 299h418l-123 -299h-418zM312 0l-278 1434h480l153 -929h41l205 929h376l204 -929h41l154 929h479l-278 -1434h-638l-130 689h-41l-129 -689h-639z" />
    <glyph glyph-name="Wdieresis" unicode="&#x1e84;" horiz-adv-x="2201" 
d="M841.5 1524q-71.5 0 -122 47t-50.5 117t50.5 117t122 47t122 -47t50.5 -117t-50.5 -117t-122 -47zM1362 1524q-72 0 -122 47t-50 117t50 117t122 47t122 -47t50 -117t-50 -117t-122 -47zM312 0l-278 1434h480l153 -929h41l205 929h376l204 -929h41l154 929h479
l-278 -1434h-638l-130 689h-41l-129 -689h-639z" />
    <glyph glyph-name="wdieresis" unicode="&#x1e85;" horiz-adv-x="2201" 
d="M841.5 1524q-71.5 0 -122 47t-50.5 117t50.5 117t122 47t122 -47t50.5 -117t-50.5 -117t-122 -47zM1362 1524q-72 0 -122 47t-50 117t50 117t122 47t122 -47t50 -117t-50 -117t-122 -47zM312 0l-278 1434h480l153 -929h41l205 929h376l204 -929h41l154 929h479
l-278 -1434h-638l-130 689h-41l-129 -689h-639z" />
    <glyph glyph-name="uni1E9E" unicode="&#x1e9e;" horiz-adv-x="1722" 
d="M1251 858q201 3 319 -131.5t118 -315.5q0 -217 -141.5 -333t-397.5 -116q-290 0 -413 109.5t-123 319.5h385q5 -58 51.5 -88t92.5 -30q58 0 100.5 35t42.5 103q0 63 -42 102.5t-101 39.5q-68 0 -111 -43h-382l307 529h-260q-157 0 -157 -175v-864h-479v966q0 140 33 232
t105 143.5t165.5 72t232.5 20.5h1020z" />
    <glyph glyph-name="Ygrave" unicode="&#x1ef2;" horiz-adv-x="1645" 
d="M1036 1519h-418l-123 299h418zM1645 1434l-587 -989v-445h-473v447l-585 987h497l307 -540h37l308 540h496z" />
    <glyph glyph-name="ygrave" unicode="&#x1ef3;" horiz-adv-x="1645" 
d="M1036 1519h-418l-123 299h418zM1645 1434l-587 -989v-445h-473v447l-585 987h497l307 -540h37l308 540h496z" />
    <glyph glyph-name="endash" unicode="&#x2013;" horiz-adv-x="1536" 
d="M68 488v394h1400v-394h-1400z" />
    <glyph glyph-name="emdash" unicode="&#x2014;" horiz-adv-x="1672" 
d="M68 488v394h1536v-394h-1536z" />
    <glyph glyph-name="quoteleft" unicode="&#x2018;" horiz-adv-x="658" 
d="M444 1434q-26 -179 -22 -407h186v-394h-557v87q0 268 31.5 454t71.5 260h290z" />
    <glyph glyph-name="quoteright" unicode="&#x2019;" horiz-adv-x="658" 
d="M215 633q26 179 22 406h-186v395h557v-87q0 -268 -32 -454t-71 -260h-290z" />
    <glyph glyph-name="quotesinglbase" unicode="&#x201a;" horiz-adv-x="658" 
d="M215 -406q26 179 22 406h-186v394h557v-87q0 -268 -32 -454t-71 -259h-290z" />
    <glyph glyph-name="quotedblleft" unicode="&#x201c;" horiz-adv-x="1177" 
d="M406 1434q-20 -157 -20 -407h165v-394h-493v87q0 268 28 454t62 260h258zM980 1434q-20 -157 -21 -407h166v-394h-494v87q0 268 28.5 454t62.5 260h258z" />
    <glyph glyph-name="quotedblright" unicode="&#x201d;" horiz-adv-x="1177" 
d="M198 633q20 157 20 406h-165v395h493v-87q0 -268 -28 -454t-62 -260h-258zM771 633q20 157 21 406h-166v395h494v-87q0 -268 -28.5 -454t-62.5 -260h-258z" />
    <glyph glyph-name="quotedblbase" unicode="&#x201e;" horiz-adv-x="1177" 
d="M198 -469q20 157 20 406h-165v394h493v-87q0 -268 -28 -454t-62 -259h-258zM771 -469q20 157 21 406h-166v394h494v-87q0 -268 -28.5 -454t-62.5 -259h-258z" />
    <glyph glyph-name="dagger" unicode="&#x2020;" horiz-adv-x="1378" 
d="M1294 1190v-374h-408v-406h-394v406h-407v374h407v407h394v-407h408z" />
    <glyph glyph-name="daggerdbl" unicode="&#x2021;" horiz-adv-x="1378" 
d="M1294 816h-408v-353h408v-374h-408v-406h-394v406h-407v374h407v353h-407v374h407v407h394v-407h408v-374z" />
    <glyph glyph-name="bullet" unicode="&#x2022;" horiz-adv-x="1058" 
d="M529 357q-147 0 -252.5 106.5t-105.5 253.5t105.5 253.5t252.5 106.5t252.5 -106.5t105.5 -253.5t-105.5 -253.5t-252.5 -106.5z" />
    <glyph glyph-name="ellipsis" unicode="&#x2026;" horiz-adv-x="1815" 
d="M295.5 -27q-95.5 0 -165.5 69t-70 163t70 163t165.5 69t165.5 -69t70 -163t-70 -163t-165.5 -69zM908 -27q-96 0 -166 69t-70 163t70 163t166 69t165.5 -69t69.5 -163t-69.5 -163t-165.5 -69zM1520.5 -27q-95.5 0 -165.5 69t-70 163t70 163t165.5 69t165.5 -69t70 -163
t-70 -163t-165.5 -69z" />
    <glyph glyph-name="perthousand" unicode="&#x2030;" horiz-adv-x="2834" 
d="M631 -49l-198 133l926 1408l197 -133zM465.5 691q-194.5 0 -291.5 107.5t-97 274.5q0 166 97 273.5t291.5 107.5t292 -107.5t97.5 -273.5q0 -167 -97.5 -274.5t-292 -107.5zM466 981q46 0 69 27.5t23 65t-23 64t-69 26.5t-69 -26.5t-23 -64t23 -65t69 -27.5zM1522.5 -20
q-194.5 0 -292 107.5t-97.5 274.5q0 166 97.5 273t292 107t291.5 -107.5t97 -272.5q0 -167 -97 -274.5t-291.5 -107.5zM2367.5 -20q-194.5 0 -292 107.5t-97.5 274.5q0 166 97.5 273t292 107t291.5 -107.5t97 -272.5q0 -167 -97 -274.5t-291.5 -107.5zM1522 270
q46 0 69.5 27t23.5 64.5t-23.5 64t-69.5 26.5t-69 -26.5t-23 -64t23 -64.5t69 -27zM2367 270q46 0 69 27t23 64.5t-23 64t-69 26.5t-69 -26.5t-23 -64t23 -64.5t69 -27z" />
    <glyph glyph-name="guilsinglleft" unicode="&#x2039;" horiz-adv-x="1024" 
d="M922 205h-489l-331 512l331 512h489l-331 -512z" />
    <glyph glyph-name="guilsinglright" unicode="&#x203a;" horiz-adv-x="1024" 
d="M102 205l331 512l-331 512h489l331 -512l-331 -512h-489z" />
    <glyph glyph-name="Euro" unicode="&#x20ac;" horiz-adv-x="1658" 
d="M905 360q236 0 290 234h428q-15 -176 -81.5 -305t-169 -200.5t-218.5 -104t-249 -32.5q-292 0 -491 153t-257 414h-123v153h104q-2 15 -1 45v20h-103v152h118q51 273 252.5 432.5t500.5 159.5q131 0 247 -32t218.5 -103t170 -200t82.5 -303h-428q-55 230 -290 230
q-96 0 -171 -48.5t-114 -135.5h279v-152h-315v-20q0 -31 1 -45h314v-153h-268q43 -75 115 -117t159 -42z" />
    <glyph glyph-name="afii61352" unicode="&#x2116;" horiz-adv-x="2066" 
d="M1631.5 647q-174.5 0 -287.5 115t-113 284t113 283.5t287.5 114.5t288 -114.5t113.5 -283.5t-113.5 -284t-288 -115zM60 0v1434h368l261 -623h41v623h413v-1434h-368l-261 623h-41v-623h-413zM1631.5 939q47.5 0 77.5 30.5t30 76.5t-30 76t-77.5 30t-77.5 -30t-30 -76
t30 -76.5t77.5 -30.5zM1263 133v374h737v-374h-737z" />
    <glyph glyph-name="trademark" unicode="&#x2122;" horiz-adv-x="1467" 
d="M1126 1434h291v-649h-200v367h-24l-53 -367h-201l-53 367h-24v-367h-200v466h-176v-466h-220v466h-215v183h901l72 -437h31z" />
    <glyph glyph-name="partialdiff" unicode="&#x2202;" horiz-adv-x="1402" 
d="M671 1471q148 0 269.5 -39t220.5 -123.5t153.5 -233t54.5 -351.5q0 -130 -19 -237.5t-66 -207.5t-122 -167.5t-196 -108.5t-278 -41q-319 0 -486.5 134t-167.5 365q0 155 79.5 261t205 151t289.5 45q210 0 317 -58q10 259 -254 260q-207 0 -232 -127h-376
q-7 237 156.5 357.5t451.5 120.5zM693 311q111 0 170 45t59 117q0 159 -229 158q-113 0 -173.5 -42.5t-60.5 -115.5q0 -72 61.5 -117t172.5 -45z" />
    <glyph glyph-name="product" unicode="&#x220f;" horiz-adv-x="1250" 
d="M60 1536h1131v-1792h-472v1398h-187v-1398h-472v1792z" />
    <glyph glyph-name="summation" unicode="&#x2211;" horiz-adv-x="1225" 
d="M60 -256v394l539 487l-539 517v394h1106v-394h-587l518 -493v-48l-518 -463h587v-394h-1106z" />
    <glyph glyph-name="minus" unicode="&#x2212;" horiz-adv-x="1242" 
d="M85 521v394h1072v-394h-1072z" />
    <glyph glyph-name="radical" unicode="&#x221a;" horiz-adv-x="1460" 
d="M486 -256l-189 705h-212v394h478l176 -657h27l234 1350h376l-335 -1792h-555z" />
    <glyph glyph-name="infinity" unicode="&#x221e;" horiz-adv-x="1474" 
d="M1065 1084q162 0 243 -104t81 -261q0 -164 -80 -267.5t-244 -103.5q-109 0 -183.5 50.5t-144.5 145.5q-70 -96 -144 -146t-182 -50q-164 0 -245 103.5t-81 267.5q0 157 81 261t245 104q108 0 181.5 -51.5t144.5 -146.5q72 97 146 147.5t182 50.5zM456 620q38 0 72.5 19.5
t89.5 80.5q-56 58 -91 77.5t-71 19.5q-49 0 -71.5 -29.5t-22.5 -67.5q0 -100 94 -100zM1019 620q94 0 94 100q0 38 -22.5 67.5t-71.5 29.5q-36 0 -70 -19.5t-89 -77.5q55 -61 88 -80.5t71 -19.5z" />
    <glyph glyph-name="integral" unicode="&#x222b;" horiz-adv-x="1377" 
d="M420 -256q-207 0 -318 65v341q94 -36 205 -36q72 0 119 35t47 109v826q0 222 135.5 331t348.5 109q207 0 318 -65v-341q-94 36 -205 36q-72 0 -118.5 -35t-46.5 -109v-826q0 -222 -136 -331t-349 -109z" />
    <glyph glyph-name="approxequal" unicode="&#x2248;" horiz-adv-x="1218" 
d="M799 736q-90 2 -222.5 63t-197.5 61q-58 0 -92 -27t-38 -75h-160q-19 125 26 211.5t125.5 124.5t179.5 38q89 0 220 -61.5t196 -63.5q123 5 133 102h161q15 -94 -8 -167t-74 -116.5t-114 -65.5t-135 -24zM799 299q-90 2 -222.5 63t-197.5 61q-58 0 -92 -27t-38 -75h-160
q-19 125 26 212t125.5 124.5t179.5 37.5q89 0 220 -61.5t196 -63.5q123 5 133 102h161q15 -94 -8 -167t-74 -116.5t-114 -65.5t-135 -24z" />
    <glyph glyph-name="notequal" unicode="&#x2260;" horiz-adv-x="1242" 
d="M1167 1432l-121 -275h111v-394h-287l-39 -91h326v-394h-502l-92 -208h-488l92 208h-82v394h258l39 91h-297v394h473l121 275h488z" />
    <glyph glyph-name="lessequal" unicode="&#x2264;" horiz-adv-x="1242" 
d="M1152 502l-1068 327v540l1068 334v-404l-705 -178v-44l705 -178v-397zM85 0v394h1072v-394h-1072z" />
    <glyph glyph-name="greaterequal" unicode="&#x2265;" horiz-adv-x="1309" 
d="M157 502v397l705 178v44l-705 178v404l1068 -334v-540zM1224 0h-1072v394h1072v-394z" />
    <glyph glyph-name="lozenge" unicode="&#x25ca;" horiz-adv-x="1331" 
d="M427 0q-27 0 -34 22l-301 674q-10 20 0 41l301 674q7 22 34 23h478q27 0 34 -23l300 -674q10 -20 0 -41l-300 -674q-7 -22 -34 -22h-478zM666 331l167 386l-167 386l-168 -386z" />
    <glyph glyph-name="glyph1" horiz-adv-x="0" 
 />
    <glyph glyph-name="glyph2" horiz-adv-x="682" 
 />
    <glyph glyph-name="G.aalt" horiz-adv-x="1667" 
d="M1621 792q36 -396 -176.5 -618t-594.5 -222q-372 0 -594 211t-222 554q0 345 223.5 554.5t592.5 209.5q135 0 258 -32t227.5 -97t175.5 -172.5t92 -247.5h-470q-26 56 -96.5 98.5t-176.5 42.5q-155 0 -256 -98t-101 -258q0 -162 95 -259.5t252 -97.5q249 0 305 186h-324
v246h790z" />
    <glyph glyph-name="i.aalt" horiz-adv-x="592" 
d="M295.5 1524q-71.5 0 -122 47t-50.5 117t50.5 117t122 47t122 -47t50.5 -117t-50.5 -117t-122 -47zM60 0v1434h472v-1434h-472z" />
    <glyph glyph-name="g.aalt" horiz-adv-x="1667" 
d="M1621 792q36 -396 -176.5 -618t-594.5 -222q-372 0 -594 211t-222 554q0 345 223.5 554.5t592.5 209.5q135 0 258 -32t227.5 -97t175.5 -172.5t92 -247.5h-470q-26 56 -96.5 98.5t-176.5 42.5q-155 0 -256 -98t-101 -258q0 -162 95 -259.5t252 -97.5q249 0 305 186h-324
v246h790z" />
    </font>
</defs>
</svg>
